<svg width="154" height="38" viewBox="0 0 154 38" fill="none" xmlns="http://www.w3.org/2000/svg">
<path d="M22.8838 22.744C21.8598 19.864 20.8358 16.984 19.8118 14.104C18.7878 11.192 17.7637 8.29602 16.7397 5.41602C15.7477 8.29602 14.7397 11.176 13.7157 14.056C12.6917 16.936 11.6838 19.832 10.6918 22.744H22.8838ZM36.4198 36.28C36.4198 36.472 36.3877 36.648 36.3237 36.808C36.2917 36.936 36.1797 37 35.9877 37C35.7637 37 35.2038 36.984 34.3078 36.952C33.4438 36.92 32.6918 36.904 32.0518 36.904C31.0598 36.904 30.0677 36.904 29.0757 36.904C28.1157 36.904 27.1398 36.936 26.1478 37C25.6357 37.032 25.1077 37.048 24.5638 37.048C24.0518 37.08 23.5398 37.096 23.0278 37.096C22.8678 37.096 22.7558 37.048 22.6918 36.952C22.6598 36.824 22.6438 36.696 22.6438 36.568L22.6918 36.184C22.6918 36.088 22.7238 35.992 22.7878 35.896C22.8518 35.768 22.9477 35.704 23.0757 35.704H25.4277C25.7157 35.704 26.0358 35.64 26.3878 35.512C26.7718 35.384 26.9637 35.144 26.9637 34.792C26.9637 34.696 26.8517 34.328 26.6277 33.688C26.4037 33.016 26.1318 32.216 25.8118 31.288C25.4918 30.328 25.1558 29.368 24.8038 28.408C24.4518 27.448 24.1478 26.6 23.8918 25.864C23.6358 25.096 23.4598 24.6 23.3638 24.376H10.2598C10.1638 24.664 9.97175 25.192 9.68375 25.96C9.39575 26.696 9.07576 27.544 8.72375 28.504C8.40376 29.464 8.06774 30.408 7.71574 31.336C7.39574 32.264 7.12375 33.064 6.89975 33.736C6.70775 34.376 6.61176 34.776 6.61176 34.936C6.61176 35.384 6.85176 35.672 7.33176 35.8C7.81176 35.928 8.21175 35.992 8.53175 35.992C8.85175 35.992 9.13975 35.992 9.39575 35.992C9.65175 35.992 9.85975 35.976 10.0197 35.944C10.0837 35.944 10.1957 35.944 10.3557 35.944C10.5477 35.912 10.6598 35.896 10.6918 35.896C10.8838 35.896 10.9958 36.008 11.0278 36.232C11.0918 36.456 11.1077 36.632 11.0757 36.76C11.0437 36.888 10.9638 36.968 10.8358 37C10.7398 37 10.6278 37 10.4998 37C9.57176 37 8.62776 36.984 7.66776 36.952C6.70776 36.92 5.76375 36.904 4.83575 36.904C4.13175 36.904 3.44374 36.92 2.77174 36.952C2.09974 36.984 1.41175 37 0.707748 37C0.419748 37 0.275757 36.84 0.275757 36.52C0.275757 36.072 0.499754 35.848 0.947754 35.848C1.10775 35.848 1.29974 35.864 1.52374 35.896C1.74774 35.896 1.98774 35.896 2.24374 35.896C2.59574 35.896 2.94774 35.8 3.29974 35.608C3.68374 35.384 4.00375 35 4.25975 34.456C4.41975 34.168 4.73976 33.4 5.21976 32.152C5.69976 30.904 6.29174 29.352 6.99574 27.496C7.69974 25.608 8.43575 23.592 9.20375 21.448C10.0038 19.272 10.7878 17.112 11.5558 14.968C12.3238 12.824 13.0118 10.84 13.6198 9.01602C14.2598 7.19202 14.7717 5.68802 15.1557 4.50402C15.5397 3.28802 15.7318 2.56802 15.7318 2.34402C15.7318 2.28002 15.6838 2.20002 15.5878 2.10402C15.4918 1.97602 15.4438 1.89602 15.4438 1.86402C15.4438 1.73602 15.4918 1.65602 15.5878 1.62402C15.9078 1.56002 16.2437 1.51202 16.5957 1.48002C16.9477 1.44802 17.2837 1.41602 17.6037 1.38402C18.0197 1.32002 18.4357 1.27202 18.8517 1.24002C19.2677 1.17602 19.6837 1.12802 20.0997 1.09602L32.5318 34.696C32.6598 35.016 32.8998 35.272 33.2518 35.464C33.6358 35.624 33.9878 35.704 34.3078 35.704C34.5958 35.704 34.8838 35.704 35.1718 35.704C35.4918 35.672 35.8117 35.656 36.1317 35.656C36.2597 35.656 36.3398 35.736 36.3717 35.896C36.4037 36.056 36.4198 36.184 36.4198 36.28Z" fill="black"/>
<path d="M66.6316 36.28C66.6316 36.696 66.3916 36.904 65.9116 36.904C65.2076 36.904 64.4876 36.888 63.7516 36.856C63.0156 36.792 62.2796 36.76 61.5436 36.76C60.4556 36.76 59.3356 36.792 58.1836 36.856C57.0636 36.888 55.9436 36.904 54.8236 36.904C54.6956 36.904 54.6156 36.808 54.5836 36.616C54.5516 36.392 54.5356 36.216 54.5356 36.088C54.5356 35.832 54.6956 35.704 55.0156 35.704C55.3356 35.704 55.5916 35.704 55.7836 35.704C55.9436 35.704 56.1036 35.72 56.2636 35.752C56.4556 35.752 56.6316 35.752 56.7916 35.752C57.7196 35.752 58.2316 35.288 58.3276 34.36C58.4236 32.472 58.4556 30.568 58.4236 28.648C58.4236 26.728 58.4236 24.824 58.4236 22.936C58.4236 22.584 58.4236 22.232 58.4236 21.88C58.4236 21.496 58.4236 21.128 58.4236 20.776C58.3916 20.04 58.3436 19.144 58.2796 18.088C58.2156 17 58.0716 16.12 57.8476 15.448C57.3356 13.784 56.2156 12.952 54.4876 12.952C52.9196 12.952 51.4796 13.352 50.1676 14.152C48.8556 14.952 47.7196 15.96 46.7596 17.176C46.7276 19.512 46.7116 21.832 46.7116 24.136C46.7116 26.44 46.7116 28.744 46.7116 31.048V34.36C46.7116 34.84 46.9196 35.192 47.3356 35.416C47.7516 35.64 48.1676 35.752 48.5836 35.752C48.8396 35.752 49.0796 35.736 49.3036 35.704C49.5596 35.64 49.7996 35.608 50.0236 35.608C50.1516 35.608 50.2316 35.688 50.2636 35.848C50.2956 36.008 50.3116 36.136 50.3116 36.232C50.3116 36.36 50.2636 36.504 50.1676 36.664C50.1036 36.824 49.9756 36.904 49.7836 36.904C49.0796 36.904 48.3756 36.888 47.6716 36.856C46.9996 36.792 46.3116 36.76 45.6076 36.76C44.5196 36.76 43.4316 36.792 42.3436 36.856C41.2556 36.888 40.1516 36.904 39.0316 36.904C38.8716 36.904 38.7756 36.808 38.7436 36.616C38.7436 36.392 38.7436 36.216 38.7436 36.088C38.7436 35.832 38.8876 35.704 39.1756 35.704C39.4636 35.704 39.6876 35.704 39.8476 35.704C40.0076 35.704 40.1676 35.72 40.3276 35.752C40.4876 35.752 40.6476 35.752 40.8076 35.752C41.7356 35.752 42.2476 35.288 42.3436 34.36C42.3756 33.912 42.3916 33.464 42.3916 33.016C42.3916 32.568 42.3916 32.12 42.3916 31.672C42.3916 28.92 42.3916 26.168 42.3916 23.416C42.3916 20.632 42.3756 17.864 42.3436 15.112C42.3436 14.664 42.2476 14.216 42.0556 13.768C41.8636 13.32 41.4956 13.096 40.9516 13.096C40.5356 13.096 40.1356 13.16 39.7516 13.288C39.3676 13.416 38.9676 13.48 38.5516 13.48C38.3276 13.48 38.2156 13.32 38.2156 13C38.2156 12.936 38.2156 12.872 38.2156 12.808C38.2476 12.712 38.2796 12.648 38.3116 12.616C38.3436 12.584 38.3916 12.568 38.4556 12.568C38.5196 12.536 38.5676 12.504 38.5996 12.472C39.1756 12.312 39.7676 12.2 40.3756 12.136C41.0156 12.072 41.6236 11.976 42.1996 11.848C42.7436 11.752 43.2716 11.624 43.7836 11.464C44.2956 11.272 44.8076 11.176 45.3196 11.176C45.5436 11.176 45.7196 11.288 45.8476 11.512C46.0076 11.8 46.1356 12.216 46.2316 12.76C46.3276 13.272 46.3916 13.8 46.4236 14.344C46.4876 14.888 46.5196 15.336 46.5196 15.688C47.2236 14.984 48.0556 14.296 49.0156 13.624C50.0076 12.92 51.0316 12.344 52.0876 11.896C53.1756 11.416 54.2316 11.176 55.2556 11.176C58.1996 11.176 60.1836 11.832 61.2076 13.144C62.2636 14.424 62.7916 16.456 62.7916 19.24C62.7916 21.736 62.7756 24.232 62.7436 26.728C62.7436 29.224 62.7436 31.72 62.7436 34.216C62.7436 34.824 62.9196 35.24 63.2716 35.464C63.6556 35.656 64.1036 35.752 64.6156 35.752C64.8716 35.752 65.1276 35.736 65.3836 35.704C65.6396 35.64 65.8796 35.608 66.1036 35.608C66.2956 35.608 66.4236 35.688 66.4876 35.848C66.5836 35.976 66.6316 36.12 66.6316 36.28Z" fill="black"/>
<path d="M82.5598 36.28C82.5598 36.44 82.5118 36.6 82.4158 36.76C82.3198 36.888 82.1918 36.952 82.0318 36.952C81.1358 36.952 80.2398 36.936 79.3438 36.904C78.4798 36.84 77.5837 36.808 76.6557 36.808H75.3598C74.3998 36.808 73.4398 36.84 72.4798 36.904C71.5518 36.936 70.6238 36.952 69.6958 36.952C69.5678 36.952 69.4717 36.872 69.4077 36.712C69.3757 36.552 69.3598 36.424 69.3598 36.328C69.3598 36.168 69.3757 36.056 69.4077 35.992C69.4397 35.896 69.5358 35.832 69.6958 35.8C69.8558 35.736 70.0318 35.72 70.2238 35.752C70.4478 35.752 70.6557 35.752 70.8477 35.752C71.0717 35.752 71.2798 35.768 71.4718 35.8C71.6638 35.8 71.8717 35.8 72.0957 35.8C72.5437 35.8 72.9437 35.704 73.2957 35.512C73.6797 35.288 73.8717 34.92 73.8717 34.408V15.208C73.8717 14.664 73.7758 14.248 73.5838 13.96C73.3918 13.64 72.9917 13.48 72.3837 13.48C71.9357 13.48 71.4717 13.512 70.9917 13.576C70.5437 13.608 70.0958 13.656 69.6478 13.72C69.3918 13.72 69.2637 13.576 69.2637 13.288C69.2637 12.968 69.3918 12.76 69.6478 12.664C70.0318 12.536 70.4317 12.456 70.8477 12.424C71.2957 12.36 71.7117 12.296 72.0957 12.232C72.9917 12.072 73.8878 11.896 74.7838 11.704C75.6798 11.512 76.5598 11.304 77.4238 11.08C77.5198 11.048 77.6478 11.032 77.8078 11.032C78.1598 11.032 78.3358 11.224 78.3358 11.608C78.3358 15.384 78.3198 19.176 78.2878 22.984C78.2878 26.792 78.2878 30.6 78.2878 34.408C78.2878 34.92 78.5117 35.288 78.9597 35.512C79.4397 35.704 79.8878 35.8 80.3038 35.8C80.6238 35.8 80.9437 35.784 81.2637 35.752C81.6157 35.72 81.9517 35.704 82.2717 35.704C82.3997 35.704 82.4797 35.784 82.5117 35.944C82.5437 36.104 82.5598 36.216 82.5598 36.28ZM78.6718 3.06402C78.6718 3.86402 78.3838 4.55202 77.8078 5.12802C77.2318 5.67202 76.5437 5.94402 75.7437 5.94402C74.9437 5.94402 74.2557 5.67202 73.6797 5.12802C73.1037 4.55202 72.8158 3.86402 72.8158 3.06402C72.8158 2.26402 73.1037 1.59202 73.6797 1.04802C74.2557 0.472019 74.9437 0.184021 75.7437 0.184021C76.5437 0.184021 77.2318 0.472019 77.8078 1.04802C78.3838 1.59202 78.6718 2.26402 78.6718 3.06402Z" fill="black"/>
<path d="M127.572 36.376C127.572 36.824 127.396 37.048 127.044 37.048C126.148 37.048 125.236 37.016 124.308 36.952C123.38 36.888 122.452 36.856 121.524 36.856C120.596 36.856 119.652 36.888 118.692 36.952C117.764 37.016 116.836 37.048 115.908 37.048C115.78 37.048 115.684 36.968 115.62 36.808C115.588 36.648 115.572 36.52 115.572 36.424C115.572 36.136 115.716 35.96 116.004 35.896C116.324 35.832 116.66 35.816 117.012 35.848C117.396 35.88 117.684 35.896 117.876 35.896C118.324 35.896 118.692 35.784 118.98 35.56C119.268 35.336 119.412 35 119.412 34.552C119.412 32.408 119.428 30.28 119.46 28.168C119.524 26.056 119.556 23.944 119.556 21.832C119.556 21.48 119.556 21.128 119.556 20.776C119.556 20.424 119.54 20.072 119.508 19.72C119.476 18.952 119.428 18.168 119.364 17.368C119.332 16.536 119.204 15.768 118.98 15.064C118.756 14.328 118.372 13.736 117.828 13.288C117.284 12.84 116.5 12.616 115.476 12.616C114.74 12.616 113.924 12.84 113.028 13.288C112.164 13.704 111.332 14.2 110.532 14.776C109.732 15.352 109.06 15.896 108.516 16.408C108.58 16.856 108.612 17.32 108.612 17.8C108.612 18.248 108.612 18.696 108.612 19.144C108.612 20.072 108.612 21.016 108.612 21.976C108.644 22.904 108.66 23.832 108.66 24.76C108.66 26.392 108.644 28.024 108.612 29.656C108.612 31.288 108.612 32.92 108.612 34.552C108.612 35.032 108.82 35.368 109.236 35.56C109.652 35.752 110.068 35.848 110.484 35.848C110.74 35.848 110.996 35.832 111.252 35.8C111.54 35.768 111.796 35.752 112.02 35.752C112.18 35.752 112.276 35.832 112.308 35.992C112.372 36.152 112.404 36.28 112.404 36.376C112.404 36.536 112.356 36.696 112.26 36.856C112.164 36.984 112.02 37.048 111.828 37.048C110.932 37.048 110.02 37.016 109.092 36.952C108.196 36.888 107.284 36.856 106.356 36.856C105.46 36.856 104.548 36.888 103.62 36.952C102.692 37.016 101.764 37.048 100.836 37.048C100.708 37.048 100.612 36.968 100.548 36.808C100.484 36.648 100.452 36.52 100.452 36.424C100.452 36.168 100.58 35.992 100.836 35.896C101.092 35.832 101.396 35.816 101.748 35.848C102.132 35.88 102.452 35.896 102.708 35.896C103.156 35.896 103.524 35.8 103.812 35.608C104.132 35.384 104.292 35.032 104.292 34.552V22.312C104.292 21.64 104.276 20.808 104.244 19.816C104.244 18.824 104.18 17.848 104.052 16.888C103.956 15.896 103.78 15.112 103.524 14.536C103.3 13.96 102.916 13.512 102.372 13.192C101.86 12.872 101.284 12.712 100.644 12.712C99.8118 12.712 98.9637 12.92 98.0997 13.336C97.2357 13.752 96.4197 14.264 95.6517 14.872C94.8837 15.48 94.2277 16.088 93.6837 16.696V34.504C93.6837 34.984 93.8597 35.336 94.2117 35.56C94.5637 35.752 94.9478 35.848 95.3638 35.848C95.6198 35.848 95.8757 35.832 96.1317 35.8C96.3877 35.736 96.6277 35.704 96.8517 35.704C96.9797 35.704 97.0598 35.8 97.0918 35.992C97.1238 36.152 97.1398 36.264 97.1398 36.328C97.1398 36.488 97.0918 36.648 96.9958 36.808C96.9318 36.936 96.8038 37 96.6118 37C96.0038 37 95.3958 36.984 94.7878 36.952C94.1797 36.888 93.5717 36.856 92.9637 36.856C91.7477 36.856 90.5318 36.888 89.3158 36.952C88.0998 36.984 86.8838 37 85.6678 37C85.5398 37 85.4437 36.92 85.3797 36.76C85.3157 36.6 85.2838 36.472 85.2838 36.376C85.2838 35.992 85.4437 35.8 85.7637 35.8C86.1157 35.8 86.4517 35.816 86.7717 35.848C87.0917 35.848 87.4118 35.848 87.7318 35.848C88.1798 35.848 88.5637 35.752 88.8837 35.56C89.2037 35.336 89.3638 34.984 89.3638 34.504C89.3638 31.272 89.3477 28.04 89.3158 24.808C89.3158 21.544 89.3158 18.296 89.3158 15.064C89.3158 14.712 89.2838 14.36 89.2198 14.008C89.1558 13.656 88.9477 13.416 88.5957 13.288C88.3717 13.192 88.1317 13.144 87.8757 13.144C87.4597 13.144 87.0437 13.208 86.6277 13.336C86.2117 13.432 85.7798 13.48 85.3318 13.48C85.0438 13.48 84.8997 13.288 84.8997 12.904C84.8997 12.648 84.9957 12.488 85.1877 12.424C85.3477 12.36 85.5237 12.328 85.7157 12.328C85.9397 12.296 86.1478 12.264 86.3398 12.232C87.0758 12.136 87.8117 12.024 88.5477 11.896C89.3157 11.736 90.0518 11.576 90.7558 11.416C91.0118 11.352 91.2837 11.288 91.5717 11.224C91.8597 11.16 92.1477 11.128 92.4357 11.128C92.8197 11.128 93.0758 11.416 93.2038 11.992C93.3638 12.536 93.4438 13.128 93.4438 13.768C93.4758 14.408 93.4917 14.872 93.4917 15.16C94.1637 14.584 94.9158 13.992 95.7478 13.384C96.5798 12.744 97.4598 12.2 98.3878 11.752C99.3158 11.304 100.244 11.08 101.172 11.08C102.804 11.08 104.18 11.352 105.3 11.896C106.42 12.44 107.38 13.464 108.18 14.968C108.884 14.36 109.684 13.752 110.58 13.144C111.476 12.504 112.404 11.976 113.364 11.56C114.356 11.112 115.332 10.888 116.292 10.888C118.404 10.888 120.004 11.192 121.092 11.8C122.212 12.408 122.964 13.352 123.348 14.632C123.764 15.88 123.972 17.496 123.972 19.48C123.972 21.976 123.956 24.488 123.924 27.016C123.892 29.512 123.876 32.024 123.876 34.552C123.876 35.032 124.084 35.368 124.5 35.56C124.948 35.752 125.38 35.848 125.796 35.848C126.052 35.848 126.292 35.832 126.516 35.8C126.772 35.768 127.012 35.752 127.236 35.752C127.364 35.752 127.444 35.832 127.476 35.992C127.54 36.152 127.572 36.28 127.572 36.376Z" fill="black"/>
<path d="M147.584 20.152C147.552 18.84 147.44 17.592 147.248 16.408C147.056 15.192 146.592 14.2 145.856 13.432C145.12 12.632 143.92 12.232 142.256 12.232C140.752 12.232 139.52 12.648 138.56 13.48C137.632 14.28 136.912 15.304 136.4 16.552C135.888 17.768 135.504 19.016 135.248 20.296C136.048 20.328 136.832 20.36 137.6 20.392C138.368 20.392 139.136 20.392 139.904 20.392C141.184 20.392 142.464 20.376 143.744 20.344C145.024 20.28 146.304 20.216 147.584 20.152ZM153.104 31.144C153.104 31.304 153.072 31.4 153.008 31.432C152.912 31.752 152.672 32.136 152.288 32.584C151.936 33.032 151.536 33.464 151.088 33.88C150.64 34.264 150.272 34.552 149.984 34.744C148.928 35.48 147.728 36.072 146.384 36.52C145.072 36.968 143.76 37.192 142.448 37.192C141.36 37.192 140.144 37.016 138.8 36.664C137.488 36.312 136.368 35.832 135.44 35.224C133.648 34.04 132.336 32.488 131.504 30.568C130.672 28.648 130.256 26.648 130.256 24.568C130.256 22.2 130.72 20.008 131.648 17.992C132.576 15.976 134.064 14.344 136.112 13.096C137.04 12.552 138.08 12.104 139.232 11.752C140.384 11.368 141.488 11.176 142.544 11.176C144.432 11.176 146.096 11.56 147.536 12.328C148.976 13.096 150.096 14.184 150.896 15.592C151.728 16.968 152.144 18.616 152.144 20.536C152.144 21.08 152.016 21.432 151.76 21.592C151.536 21.752 151.184 21.832 150.704 21.832C150.064 21.832 149.424 21.816 148.784 21.784C148.144 21.752 147.504 21.72 146.864 21.688C145.968 21.624 145.072 21.592 144.176 21.592C143.312 21.592 142.432 21.592 141.536 21.592C140.448 21.592 139.36 21.592 138.272 21.592C137.184 21.592 136.096 21.624 135.008 21.688C134.976 22.2 134.944 22.696 134.912 23.176C134.88 23.656 134.864 24.152 134.864 24.664C134.864 25.848 135.008 27.08 135.296 28.36C135.584 29.608 136.048 30.776 136.688 31.864C137.328 32.92 138.144 33.784 139.136 34.456C140.128 35.096 141.328 35.416 142.736 35.416C144.176 35.416 145.552 35.192 146.864 34.744C148.176 34.296 149.376 33.576 150.464 32.584C150.752 32.296 151.008 31.992 151.232 31.672C151.488 31.32 151.76 31.016 152.048 30.76C152.208 30.6 152.384 30.52 152.576 30.52C152.736 30.52 152.864 30.584 152.96 30.712C153.056 30.84 153.104 30.984 153.104 31.144Z" fill="black"/>
</svg>
