<svg width="183" height="39" viewBox="0 0 183 39" fill="none" xmlns="http://www.w3.org/2000/svg">
<path d="M27.8793 9.68001C27.8793 9.96801 27.7673 10.208 27.5433 10.4C27.3513 10.56 27.1273 10.64 26.8713 10.64C26.5513 10.64 26.3433 10.576 26.2473 10.448C26.1513 10.288 26.0553 10.08 25.9593 9.82401C25.4153 8.096 24.5833 6.816 23.4633 5.984C22.3433 5.152 20.8553 4.73601 18.9993 4.73601H10.2633V19.184C11.7353 19.152 13.2073 19.136 14.6793 19.136C16.1513 19.104 17.6233 19.024 19.0953 18.896C20.0553 18.832 20.9993 18.72 21.9273 18.56C22.8553 18.4 23.7833 18.24 24.7113 18.08H24.8073C24.8713 18.08 24.9353 18.112 24.9993 18.176C25.0953 18.208 25.1433 18.256 25.1433 18.32C25.1433 18.544 25.0313 18.944 24.8073 19.52C24.5833 20.064 24.4233 20.448 24.3273 20.672C24.1673 21.056 23.9273 21.248 23.6073 21.248C23.3833 21.248 23.1433 21.248 22.8873 21.248C22.6633 21.216 22.4233 21.184 22.1673 21.152C21.0473 21.024 19.9113 20.96 18.7593 20.96C17.6393 20.928 16.5193 20.912 15.3993 20.912C14.9833 20.912 14.4873 20.912 13.9113 20.912C13.3353 20.912 12.7593 20.96 12.1833 21.056C11.6393 21.152 11.1753 21.36 10.7913 21.68C10.4393 21.968 10.2633 22.416 10.2633 23.024V33.872C10.2633 34.224 10.3433 34.56 10.5033 34.88C10.6953 35.168 10.9193 35.44 11.1753 35.696C11.6553 36.112 12.2473 36.368 12.9513 36.464C13.6873 36.528 14.3593 36.56 14.9673 36.56C15.4153 36.56 15.6393 36.8 15.6393 37.28C15.6393 37.792 15.3513 38.048 14.7753 38.048C14.2633 38.048 13.7353 38.032 13.1913 38C12.6473 37.936 12.1033 37.904 11.5593 37.904C10.9193 37.904 10.2633 37.904 9.59126 37.904C8.95125 37.872 8.31125 37.856 7.67125 37.856C6.58325 37.856 5.49525 37.904 4.40725 38C3.35125 38.064 2.26325 38.096 1.14325 38.096C1.01525 38.096 0.871254 38.048 0.711254 37.952C0.583254 37.824 0.519254 37.68 0.519254 37.52C0.519254 37.296 0.535254 37.12 0.567254 36.992C0.631254 36.832 0.791254 36.736 1.04725 36.704C1.30325 36.64 1.57525 36.608 1.86325 36.608C2.15125 36.576 2.42325 36.544 2.67925 36.512C3.86325 36.256 4.59925 35.792 4.88725 35.12C5.20725 34.416 5.36725 33.52 5.36725 32.432V6.75201C5.36725 6.01601 5.11125 5.53601 4.59925 5.312C4.08725 5.08801 3.47925 4.97601 2.77525 4.97601C2.10325 4.97601 1.52725 4.97601 1.04725 4.97601C0.439254 4.97601 0.135254 4.704 0.135254 4.16C0.135254 3.904 0.167254 3.68001 0.231254 3.48801C0.327254 3.29601 0.519254 3.2 0.807254 3.2C1.38325 3.2 1.95925 3.21601 2.53525 3.24801C3.14325 3.28001 3.73525 3.29601 4.31125 3.29601H12.7593C14.3593 3.29601 15.9593 3.28001 17.5593 3.24801C19.1913 3.18401 20.8073 3.15201 22.4073 3.15201C23.8793 3.15201 25.3513 3.104 26.8233 3.008C26.9833 3.968 27.1913 5.088 27.4473 6.368C27.7353 7.648 27.8793 8.75201 27.8793 9.68001Z" fill="black"/>
<path d="M45.7041 32.384C45.5761 30.944 45.4961 29.504 45.4641 28.064C45.4641 26.592 45.4481 25.12 45.4161 23.648H44.7441C43.7521 23.648 42.6481 23.808 41.4321 24.128C40.2481 24.416 39.1121 24.864 38.0241 25.472C36.9361 26.08 36.0401 26.848 35.3361 27.776C34.6641 28.672 34.3281 29.712 34.3281 30.896C34.3281 32.432 34.7601 33.6 35.6241 34.4C36.4881 35.168 37.6561 35.552 39.1281 35.552C39.8321 35.552 40.6001 35.392 41.4321 35.072C42.2641 34.72 43.0641 34.304 43.8321 33.824C44.6001 33.344 45.2241 32.864 45.7041 32.384ZM54.1041 35.456C54.1041 35.584 54.0881 35.68 54.0561 35.744C53.7361 36.448 53.1921 36.992 52.4241 37.376C51.6881 37.728 50.9521 37.904 50.2161 37.904C48.8721 37.904 47.8961 37.52 47.2881 36.752C46.7121 35.952 46.2481 34.976 45.8961 33.824C44.6801 34.944 43.3361 35.888 41.8641 36.656C40.3921 37.392 38.8081 37.76 37.1121 37.76C35.9281 37.76 34.8081 37.536 33.7521 37.088C32.7281 36.608 31.8961 35.92 31.2561 35.024C30.6161 34.128 30.2961 33.04 30.2961 31.76C30.2961 30.416 30.6321 29.264 31.3041 28.304C32.0081 27.312 32.8881 26.48 33.9441 25.808C35.0321 25.104 36.1841 24.544 37.4001 24.128C38.6481 23.68 39.8161 23.344 40.9041 23.12C41.6401 22.96 42.3921 22.816 43.1601 22.688C43.9281 22.56 44.6801 22.432 45.4161 22.304C45.4161 21.408 45.3681 20.368 45.2721 19.184C45.2081 18 44.9681 17.024 44.5521 16.256C44.1361 15.52 43.5761 14.864 42.8721 14.288C42.1681 13.712 41.3841 13.424 40.5201 13.424C39.0481 13.424 37.8961 13.808 37.0641 14.576C36.2321 15.344 35.6401 16.432 35.2881 17.84C35.2561 18 35.2241 18.176 35.1921 18.368C35.1921 18.528 35.1761 18.688 35.1441 18.848C35.1121 19.04 34.9841 19.216 34.7601 19.376C34.5681 19.504 34.3601 19.568 34.1361 19.568C33.5281 19.568 32.9681 19.424 32.4561 19.136C31.9761 18.848 31.7361 18.368 31.7361 17.696C31.7361 17.312 31.8001 16.976 31.9281 16.688C32.3441 15.696 33.0161 14.88 33.9441 14.24C34.8721 13.568 35.8961 13.056 37.0161 12.704C38.1681 12.352 39.2401 12.176 40.2321 12.176C41.9601 12.176 43.5281 12.496 44.9361 13.136C46.3441 13.776 47.4641 14.72 48.2961 15.968C49.1601 17.184 49.5921 18.72 49.5921 20.576C49.5921 22.656 49.5761 24.752 49.5441 26.864C49.5441 28.976 49.6081 31.088 49.7361 33.2C49.7681 33.904 49.9121 34.528 50.1681 35.072C50.4241 35.584 50.9521 35.84 51.7521 35.84C52.1681 35.84 52.6001 35.744 53.0481 35.552C53.5281 35.328 53.8321 35.216 53.9601 35.216C54.0561 35.216 54.1041 35.296 54.1041 35.456Z" fill="black"/>
<path d="M74.3095 31.136C74.3095 32.576 73.9895 33.76 73.3495 34.688C72.7095 35.584 71.8775 36.272 70.8535 36.752C69.8295 37.232 68.7095 37.568 67.4935 37.76C66.2775 37.952 65.0935 38.048 63.9415 38.048C62.8855 38.048 61.8295 37.936 60.7735 37.712C59.7495 37.488 58.7095 37.328 57.6535 37.232C57.4295 36.368 57.2055 35.504 56.9815 34.64C56.7895 33.776 56.5655 32.928 56.3095 32.096C56.2775 32 56.1975 31.776 56.0695 31.424C55.9735 31.072 55.9255 30.88 55.9255 30.848C55.9255 30.592 56.0055 30.416 56.1655 30.32C56.3255 30.192 56.5175 30.128 56.7415 30.128C56.9655 30.128 57.1255 30.208 57.2215 30.368C57.4135 30.592 57.5735 30.896 57.7015 31.28C57.8615 31.664 58.0055 32 58.1335 32.288C58.3895 32.8 58.6135 33.2 58.8055 33.488C58.9975 33.744 59.3015 34.08 59.7175 34.496C60.9655 35.808 62.5175 36.464 64.3735 36.464C65.3975 36.464 66.3255 36.352 67.1575 36.128C68.0215 35.904 68.7095 35.488 69.2215 34.88C69.7335 34.24 69.9895 33.328 69.9895 32.144C69.9895 31.12 69.6695 30.272 69.0295 29.6C68.3895 28.896 67.5575 28.272 66.5335 27.728C65.5415 27.184 64.4855 26.656 63.3655 26.144C62.2455 25.632 61.1735 25.072 60.1495 24.464C59.1575 23.824 58.3415 23.056 57.7015 22.16C57.0615 21.264 56.7415 20.176 56.7415 18.896C56.7415 17.328 57.1415 16.048 57.9415 15.056C58.7735 14.064 59.8295 13.328 61.1095 12.848C62.3895 12.336 63.7175 12.08 65.0935 12.08C65.9895 12.08 66.7895 12.192 67.4935 12.416C68.2295 12.64 68.9975 12.896 69.7975 13.184C70.0535 13.28 70.3095 13.344 70.5655 13.376C70.8215 13.408 71.0775 13.424 71.3335 13.424C71.4935 13.424 71.6375 13.424 71.7655 13.424C71.8935 13.424 72.0215 13.408 72.1495 13.376C72.2455 13.952 72.3255 14.544 72.3895 15.152C72.4855 15.728 72.5655 16.32 72.6295 16.928C72.6615 17.152 72.6935 17.424 72.7255 17.744C72.7895 18.032 72.8215 18.304 72.8215 18.56C72.8215 18.784 72.7735 19.024 72.6775 19.28C72.5815 19.504 72.3895 19.616 72.1015 19.616C71.8775 19.616 71.6855 19.6 71.5255 19.568C71.3975 19.504 71.2855 19.36 71.1895 19.136C71.0295 18.816 70.8855 18.48 70.7575 18.128C70.6615 17.744 70.5495 17.392 70.4215 17.072C70.0055 15.952 69.2855 15.056 68.2615 14.384C67.2375 13.68 66.1335 13.328 64.9495 13.328C63.4455 13.328 62.3095 13.776 61.5415 14.672C60.7735 15.536 60.3895 16.704 60.3895 18.176C60.3895 18.688 60.5175 19.184 60.7735 19.664C61.0615 20.144 61.3815 20.56 61.7335 20.912C62.4055 21.552 63.1895 22.048 64.0855 22.4C65.0135 22.752 65.8935 23.104 66.7255 23.456C67.8135 23.936 68.9335 24.512 70.0855 25.184C71.2695 25.856 72.2615 26.672 73.0615 27.632C73.8935 28.592 74.3095 29.76 74.3095 31.136Z" fill="black"/>
<path d="M105.907 37.472C105.907 37.632 105.827 37.76 105.667 37.856C105.507 37.92 105.347 37.952 105.187 37.952C104.387 37.952 103.571 37.936 102.739 37.904C101.939 37.84 101.123 37.808 100.291 37.808C99.3634 37.808 98.4194 37.84 97.4594 37.904C96.5314 37.968 95.6034 38 94.6754 38C94.5154 38 94.4034 37.904 94.3394 37.712C94.3074 37.488 94.2914 37.312 94.2914 37.184C94.2914 36.96 94.4034 36.848 94.6274 36.848C94.9794 36.848 95.3154 36.864 95.6354 36.896C95.9874 36.896 96.3234 36.896 96.6434 36.896C97.0594 36.896 97.3794 36.768 97.6034 36.512C97.8594 36.224 98.0034 35.888 98.0354 35.504C98.0994 34.704 98.1154 33.904 98.0834 33.104C98.0834 32.304 98.0834 31.52 98.0834 30.752C98.0834 29.792 98.0834 28.848 98.0834 27.92C98.0834 26.96 98.0834 26 98.0834 25.04C98.0834 24.08 98.0834 23.12 98.0834 22.16C98.0834 21.2 98.0514 20.24 97.9874 19.28C97.9554 18.864 97.9074 18.464 97.8434 18.08C97.8114 17.664 97.7314 17.264 97.6034 16.88C97.2834 16.016 96.7554 15.36 96.0194 14.912C95.3154 14.432 94.4994 14.192 93.5714 14.192C92.4834 14.192 91.4114 14.48 90.3554 15.056C89.2994 15.6 88.4194 16.288 87.7154 17.12C86.9474 18.016 86.3874 18.8 86.0354 19.472C85.6834 20.144 85.4594 20.848 85.3634 21.584C85.2994 22.32 85.2674 23.28 85.2674 24.464V32.912C85.2674 33.264 85.2514 33.76 85.2194 34.4C85.2194 35.04 85.2994 35.616 85.4594 36.128C85.6514 36.64 86.0194 36.896 86.5634 36.896C86.8834 36.896 87.1874 36.88 87.4754 36.848C87.7634 36.816 88.0674 36.8 88.3874 36.8C88.6754 36.8 88.8194 36.96 88.8194 37.28C88.8194 37.44 88.7874 37.6 88.7234 37.76C88.6914 37.888 88.5794 37.952 88.3874 37.952C87.2994 37.952 86.1794 37.936 85.0274 37.904C83.9074 37.84 82.7874 37.808 81.6674 37.808C80.6434 37.808 79.6034 37.856 78.5474 37.952C78.4194 37.952 78.3074 37.968 78.2114 38C78.1154 38 78.0034 38 77.8754 38C77.7154 38 77.5874 37.92 77.4914 37.76C77.4274 37.568 77.3954 37.408 77.3954 37.28C77.3954 36.928 77.5714 36.752 77.9234 36.752C78.1154 36.752 78.3074 36.768 78.4994 36.8C78.6914 36.8 78.8994 36.8 79.1234 36.8C79.5714 36.8 80.0354 36.736 80.5154 36.608C81.0274 36.448 81.2994 36.08 81.3314 35.504C81.3954 34.448 81.4114 33.392 81.3794 32.336C81.3794 31.28 81.3794 30.24 81.3794 29.216C81.3794 27.232 81.3794 25.264 81.3794 23.312C81.4114 21.36 81.4274 19.408 81.4274 17.456C81.4274 15.408 81.4114 13.376 81.3794 11.36C81.3474 9.31201 81.3154 7.264 81.2834 5.216C81.2834 4.864 81.2194 4.48 81.0914 4.064C80.9634 3.616 80.6754 3.39201 80.2274 3.39201C79.7794 3.39201 79.3154 3.42401 78.8354 3.48801C78.3554 3.55201 77.8754 3.58401 77.3954 3.58401C77.1074 3.58401 76.9634 3.45601 76.9634 3.2C76.9634 2.912 77.1074 2.72001 77.3954 2.62401C78.0354 2.46401 78.6594 2.33601 79.2674 2.24001C79.9074 2.14401 80.5314 2.03201 81.1394 1.90401C81.6834 1.77601 82.3234 1.60001 83.0594 1.37601C83.8274 1.12001 84.4674 0.992004 84.9794 0.992004C85.1714 0.992004 85.2834 1.05601 85.3154 1.18401C85.3474 1.28 85.3634 1.408 85.3634 1.568C85.3634 4.192 85.3634 6.81601 85.3634 9.44001C85.3634 12.064 85.3314 14.688 85.2674 17.312C85.9714 16.576 86.8194 15.84 87.8114 15.104C88.8354 14.368 89.9234 13.76 91.0754 13.28C92.2274 12.768 93.3154 12.512 94.3394 12.512C96.4194 12.512 98.0514 12.816 99.2354 13.424C100.419 14.032 101.251 14.976 101.731 16.256C102.211 17.504 102.451 19.136 102.451 21.152C102.451 23.552 102.435 25.952 102.403 28.352C102.403 30.72 102.403 33.104 102.403 35.504C102.403 36.016 102.531 36.384 102.787 36.608C103.075 36.8 103.475 36.896 103.987 36.896C104.211 36.896 104.419 36.88 104.611 36.848C104.835 36.816 105.059 36.8 105.283 36.8C105.443 36.8 105.587 36.88 105.715 37.04C105.843 37.168 105.907 37.312 105.907 37.472Z" fill="black"/>
<path d="M121.591 37.28C121.591 37.44 121.543 37.6 121.447 37.76C121.351 37.888 121.223 37.952 121.063 37.952C120.167 37.952 119.271 37.936 118.375 37.904C117.511 37.84 116.615 37.808 115.687 37.808H114.391C113.431 37.808 112.471 37.84 111.511 37.904C110.583 37.936 109.655 37.952 108.727 37.952C108.599 37.952 108.503 37.872 108.439 37.712C108.407 37.552 108.391 37.424 108.391 37.328C108.391 37.168 108.407 37.056 108.439 36.992C108.471 36.896 108.567 36.832 108.727 36.8C108.887 36.736 109.063 36.72 109.255 36.752C109.479 36.752 109.687 36.752 109.879 36.752C110.103 36.752 110.311 36.768 110.503 36.8C110.695 36.8 110.903 36.8 111.127 36.8C111.575 36.8 111.975 36.704 112.327 36.512C112.711 36.288 112.903 35.92 112.903 35.408V16.208C112.903 15.664 112.807 15.248 112.615 14.96C112.423 14.64 112.023 14.48 111.415 14.48C110.967 14.48 110.503 14.512 110.023 14.576C109.575 14.608 109.127 14.656 108.679 14.72C108.423 14.72 108.295 14.576 108.295 14.288C108.295 13.968 108.423 13.76 108.679 13.664C109.063 13.536 109.463 13.456 109.879 13.424C110.327 13.36 110.743 13.296 111.127 13.232C112.023 13.072 112.919 12.896 113.815 12.704C114.711 12.512 115.591 12.304 116.455 12.08C116.551 12.048 116.679 12.032 116.839 12.032C117.191 12.032 117.367 12.224 117.367 12.608C117.367 16.384 117.351 20.176 117.319 23.984C117.319 27.792 117.319 31.6 117.319 35.408C117.319 35.92 117.543 36.288 117.991 36.512C118.471 36.704 118.919 36.8 119.335 36.8C119.655 36.8 119.975 36.784 120.295 36.752C120.647 36.72 120.983 36.704 121.303 36.704C121.431 36.704 121.511 36.784 121.543 36.944C121.575 37.104 121.591 37.216 121.591 37.28ZM117.703 4.064C117.703 4.864 117.415 5.55201 116.839 6.12801C116.263 6.67201 115.575 6.94401 114.775 6.94401C113.975 6.94401 113.287 6.67201 112.711 6.12801C112.135 5.55201 111.847 4.864 111.847 4.064C111.847 3.264 112.135 2.592 112.711 2.048C113.287 1.472 113.975 1.18401 114.775 1.18401C115.575 1.18401 116.263 1.472 116.839 2.048C117.415 2.592 117.703 3.264 117.703 4.064Z" fill="black"/>
<path d="M145.483 25.328C145.483 23.952 145.371 22.576 145.147 21.2C144.955 19.792 144.571 18.496 143.995 17.312C143.451 16.128 142.651 15.184 141.595 14.48C140.539 13.744 139.163 13.376 137.467 13.376C135.867 13.376 134.555 13.76 133.531 14.528C132.539 15.296 131.755 16.288 131.179 17.504C130.635 18.72 130.251 20.032 130.027 21.44C129.835 22.848 129.739 24.176 129.739 25.424C129.739 26.8 129.835 28.176 130.027 29.552C130.251 30.928 130.651 32.176 131.227 33.296C131.803 34.384 132.619 35.264 133.675 35.936C134.763 36.608 136.155 36.944 137.851 36.944C139.515 36.944 140.843 36.592 141.835 35.888C142.859 35.184 143.627 34.256 144.139 33.104C144.683 31.952 145.035 30.704 145.195 29.36C145.387 27.984 145.483 26.64 145.483 25.328ZM150.427 25.472C150.427 27.872 149.851 30.032 148.699 31.952C147.579 33.872 146.043 35.392 144.091 36.512C142.171 37.632 140.011 38.192 137.611 38.192C135.275 38.192 133.163 37.632 131.275 36.512C129.387 35.36 127.883 33.84 126.763 31.952C125.643 30.032 125.083 27.904 125.083 25.568C125.083 23.168 125.627 20.96 126.715 18.944C127.803 16.896 129.291 15.248 131.179 14C133.099 12.752 135.307 12.128 137.803 12.128C140.491 12.128 142.779 12.704 144.667 13.856C146.555 14.976 147.979 16.544 148.939 18.56C149.931 20.544 150.427 22.848 150.427 25.472Z" fill="black"/>
<path d="M182.257 37.28C182.257 37.696 182.017 37.904 181.537 37.904C180.833 37.904 180.113 37.888 179.377 37.856C178.641 37.792 177.905 37.76 177.169 37.76C176.081 37.76 174.961 37.792 173.809 37.856C172.689 37.888 171.569 37.904 170.449 37.904C170.321 37.904 170.241 37.808 170.209 37.616C170.177 37.392 170.161 37.216 170.161 37.088C170.161 36.832 170.321 36.704 170.641 36.704C170.961 36.704 171.217 36.704 171.409 36.704C171.569 36.704 171.729 36.72 171.889 36.752C172.081 36.752 172.257 36.752 172.417 36.752C173.345 36.752 173.857 36.288 173.953 35.36C174.049 33.472 174.081 31.568 174.049 29.648C174.049 27.728 174.049 25.824 174.049 23.936C174.049 23.584 174.049 23.232 174.049 22.88C174.049 22.496 174.049 22.128 174.049 21.776C174.017 21.04 173.969 20.144 173.905 19.088C173.841 18 173.697 17.12 173.473 16.448C172.961 14.784 171.841 13.952 170.113 13.952C168.545 13.952 167.105 14.352 165.793 15.152C164.481 15.952 163.345 16.96 162.385 18.176C162.353 20.512 162.337 22.832 162.337 25.136C162.337 27.44 162.337 29.744 162.337 32.048V35.36C162.337 35.84 162.545 36.192 162.961 36.416C163.377 36.64 163.793 36.752 164.209 36.752C164.465 36.752 164.705 36.736 164.929 36.704C165.185 36.64 165.425 36.608 165.649 36.608C165.777 36.608 165.857 36.688 165.889 36.848C165.921 37.008 165.937 37.136 165.937 37.232C165.937 37.36 165.889 37.504 165.793 37.664C165.729 37.824 165.601 37.904 165.409 37.904C164.705 37.904 164.001 37.888 163.297 37.856C162.625 37.792 161.937 37.76 161.233 37.76C160.145 37.76 159.057 37.792 157.969 37.856C156.881 37.888 155.777 37.904 154.657 37.904C154.497 37.904 154.401 37.808 154.369 37.616C154.369 37.392 154.369 37.216 154.369 37.088C154.369 36.832 154.513 36.704 154.801 36.704C155.089 36.704 155.313 36.704 155.473 36.704C155.633 36.704 155.793 36.72 155.953 36.752C156.113 36.752 156.273 36.752 156.433 36.752C157.361 36.752 157.873 36.288 157.969 35.36C158.001 34.912 158.017 34.464 158.017 34.016C158.017 33.568 158.017 33.12 158.017 32.672C158.017 29.92 158.017 27.168 158.017 24.416C158.017 21.632 158.001 18.864 157.969 16.112C157.969 15.664 157.873 15.216 157.681 14.768C157.489 14.32 157.121 14.096 156.577 14.096C156.161 14.096 155.761 14.16 155.377 14.288C154.993 14.416 154.593 14.48 154.177 14.48C153.953 14.48 153.841 14.32 153.841 14C153.841 13.936 153.841 13.872 153.841 13.808C153.873 13.712 153.905 13.648 153.937 13.616C153.969 13.584 154.017 13.568 154.081 13.568C154.145 13.536 154.193 13.504 154.225 13.472C154.801 13.312 155.393 13.2 156.001 13.136C156.641 13.072 157.249 12.976 157.825 12.848C158.369 12.752 158.897 12.624 159.409 12.464C159.921 12.272 160.433 12.176 160.945 12.176C161.169 12.176 161.345 12.288 161.473 12.512C161.633 12.8 161.761 13.216 161.857 13.76C161.953 14.272 162.017 14.8 162.049 15.344C162.113 15.888 162.145 16.336 162.145 16.688C162.849 15.984 163.681 15.296 164.641 14.624C165.633 13.92 166.657 13.344 167.713 12.896C168.801 12.416 169.857 12.176 170.881 12.176C173.825 12.176 175.809 12.832 176.833 14.144C177.889 15.424 178.417 17.456 178.417 20.24C178.417 22.736 178.401 25.232 178.369 27.728C178.369 30.224 178.369 32.72 178.369 35.216C178.369 35.824 178.545 36.24 178.897 36.464C179.281 36.656 179.729 36.752 180.241 36.752C180.497 36.752 180.753 36.736 181.009 36.704C181.265 36.64 181.505 36.608 181.729 36.608C181.921 36.608 182.049 36.688 182.113 36.848C182.209 36.976 182.257 37.12 182.257 37.28Z" fill="black"/>
</svg>
