<svg width="139" height="38" viewBox="0 0 139 38" fill="none" xmlns="http://www.w3.org/2000/svg">
<path d="M44.1054 36.328C44.1054 36.744 43.9134 36.952 43.5294 36.952C42.3454 36.952 41.1774 36.92 40.0254 36.856C38.8734 36.792 37.7214 36.76 36.5694 36.76C36.0254 36.76 35.4814 36.776 34.9374 36.808C34.3934 36.808 33.8494 36.824 33.3054 36.856C32.7614 36.888 32.2174 36.936 31.6734 37C31.1614 37.032 30.6334 37.048 30.0894 37.048C29.8014 37.048 29.6094 36.968 29.5134 36.808C29.4494 36.616 29.4174 36.408 29.4174 36.184C29.4174 36.056 29.4494 35.928 29.5134 35.8C29.5774 35.64 29.6894 35.56 29.8494 35.56C29.9454 35.528 30.0894 35.512 30.2814 35.512C30.5054 35.512 30.7294 35.528 30.9534 35.56C31.2094 35.56 31.4494 35.56 31.6734 35.56C32.1214 35.56 32.6174 35.512 33.1614 35.416C33.7374 35.32 34.0574 34.968 34.1214 34.36C34.1534 34.264 34.1534 34.168 34.1214 34.072C34.1214 33.976 34.1214 33.88 34.1214 33.784V4.36002H33.8334C32.6174 7.65602 31.3534 10.936 30.0414 14.2C28.7294 17.432 27.4174 20.664 26.1054 23.896C25.5934 25.208 25.0654 26.52 24.5214 27.832C23.9774 29.144 23.4334 30.456 22.8894 31.768C22.6654 32.344 22.4414 32.936 22.2174 33.544C22.0254 34.152 21.7854 34.728 21.4974 35.272C21.2734 35.624 20.9214 35.8 20.4414 35.8C19.9934 35.8 19.6574 35.624 19.4334 35.272C19.1774 34.792 18.9374 34.28 18.7134 33.736C18.5214 33.192 18.3134 32.664 18.0894 32.152C17.6094 31.032 17.1454 29.928 16.6974 28.84C16.2494 27.752 15.8014 26.664 15.3534 25.576C13.8814 22.056 12.4094 18.552 10.9374 15.064C9.49744 11.544 8.05744 8.04002 6.61744 4.55202C6.61744 9.51202 6.61744 14.488 6.61744 19.48C6.64944 24.44 6.66544 29.4 6.66544 34.36C6.66544 35 6.93744 35.368 7.48144 35.464C8.05744 35.56 8.58544 35.608 9.06544 35.608C9.38544 35.608 9.70544 35.592 10.0254 35.56C10.3454 35.528 10.6654 35.512 10.9854 35.512C11.1454 35.512 11.2254 35.608 11.2254 35.8C11.2254 35.96 11.2094 36.184 11.1774 36.472C11.1454 36.76 11.0174 36.904 10.7934 36.904C9.92944 36.904 9.04944 36.888 8.15344 36.856C7.28944 36.792 6.42544 36.76 5.56144 36.76C4.72944 36.76 3.88144 36.792 3.01744 36.856C2.18544 36.888 1.35344 36.904 0.521441 36.904C0.489441 36.84 0.457442 36.792 0.425442 36.76C0.425442 36.696 0.409441 36.648 0.377441 36.616V36.184C0.377441 35.864 0.441441 35.688 0.569441 35.656C0.697441 35.624 0.873443 35.608 1.09744 35.608C1.35344 35.608 1.59344 35.624 1.81744 35.656C2.04144 35.656 2.26544 35.656 2.48944 35.656C2.96944 35.656 3.48144 35.592 4.02544 35.464C4.56944 35.336 4.85744 34.968 4.88944 34.36C4.95344 33.848 4.96944 33.336 4.93744 32.824C4.93744 32.28 4.93744 31.752 4.93744 31.24C4.93744 30.216 4.92144 29.192 4.88944 28.168C4.88944 27.112 4.88944 26.072 4.88944 25.048C4.88944 21.624 4.90544 18.216 4.93744 14.824C5.00144 11.432 5.03344 8.04002 5.03344 4.64802C5.03344 4.04002 4.74544 3.64002 4.16944 3.44802C3.59344 3.25602 3.06544 3.16002 2.58544 3.16002C2.29744 3.16002 2.00944 3.17602 1.72144 3.20802C1.43344 3.24002 1.14544 3.25602 0.857441 3.25602C0.665441 3.25602 0.537442 3.16002 0.473442 2.96802C0.409442 2.77602 0.377441 2.61602 0.377441 2.48802C0.377441 2.04002 0.553441 1.81602 0.905441 1.81602C1.73744 1.81602 2.58544 1.84802 3.44944 1.91203C4.31344 1.94403 5.16144 1.96002 5.99344 1.96002C7.62544 1.96002 9.25744 1.91202 10.8894 1.81602L22.2654 29.176C24.0254 24.6 25.8654 20.072 27.7854 15.592C29.7054 11.08 31.4814 6.52003 33.1134 1.91203C33.9134 1.94403 34.6974 1.97602 35.4654 2.00802C36.2654 2.00802 37.0654 2.00802 37.8654 2.00802C38.8254 2.00802 39.7694 1.97602 40.6974 1.91203C41.6574 1.81602 42.6174 1.76802 43.5774 1.76802C43.7694 1.76802 43.8814 1.86402 43.9134 2.05602C43.9454 2.24802 43.9614 2.40802 43.9614 2.53602C43.9614 2.66402 43.9454 2.82402 43.9134 3.01602C43.8814 3.20802 43.7694 3.30402 43.5774 3.30402C43.1614 3.30402 42.7614 3.28802 42.3774 3.25602C41.9934 3.22402 41.6094 3.20802 41.2254 3.20802C40.8414 3.20802 40.3614 3.30402 39.7854 3.49603C39.2414 3.65602 38.9694 3.97602 38.9694 4.45602V33.976C38.9694 34.712 39.1774 35.176 39.5934 35.368C40.0414 35.528 40.6014 35.608 41.2734 35.608C41.6574 35.608 42.0414 35.592 42.4254 35.56C42.8094 35.528 43.2094 35.512 43.6254 35.512C43.8814 35.512 44.0254 35.608 44.0574 35.8C44.0894 35.992 44.1054 36.168 44.1054 36.328Z" fill="black"/>
<path d="M74.4062 35.704C74.4062 36.088 74.1182 36.376 73.5422 36.568C72.9982 36.76 72.3902 36.888 71.7182 36.952C71.0462 37.016 70.5662 37.048 70.2782 37.048C69.1902 37.048 68.3262 36.616 67.6862 35.752C67.0462 34.888 66.5662 33.992 66.2462 33.064C65.1582 34.44 63.7982 35.464 62.1662 36.136C60.5342 36.808 58.8382 37.144 57.0782 37.144C54.1982 37.144 52.1982 36.408 51.0782 34.936C49.9902 33.432 49.4462 31.32 49.4462 28.6C49.4462 26.2 49.4462 23.8 49.4462 21.4C49.4782 18.968 49.5102 16.552 49.5422 14.152C49.5422 13.192 49.0782 12.712 48.1502 12.712C47.8942 12.712 47.6382 12.728 47.3822 12.76C47.1262 12.792 46.8702 12.808 46.6142 12.808C46.5182 12.808 46.4382 12.76 46.3742 12.664C46.3422 12.536 46.3262 12.44 46.3262 12.376C46.3262 12.024 46.4862 11.832 46.8062 11.8C47.9262 11.672 49.0462 11.592 50.1662 11.56C51.3182 11.496 52.4542 11.4 53.5742 11.272C53.8302 11.528 53.9582 11.848 53.9582 12.232C53.9582 13.032 53.9422 13.848 53.9102 14.68C53.8782 15.512 53.8622 16.344 53.8622 17.176C53.8302 19.128 53.7982 21.096 53.7662 23.08C53.7662 25.032 53.7662 27 53.7662 28.984C53.7662 29.592 53.7822 30.248 53.8142 30.952C53.8462 31.624 53.9742 32.248 54.1982 32.824C54.5502 33.72 55.2062 34.36 56.1662 34.744C57.1582 35.096 58.1022 35.272 58.9982 35.272C59.9902 35.272 60.9822 35.096 61.9742 34.744C62.9982 34.36 63.8622 33.816 64.5662 33.112C65.3022 32.376 65.7182 31.464 65.8142 30.376C65.8782 29.832 65.9102 29.288 65.9102 28.744C65.9422 28.168 65.9582 27.608 65.9582 27.064L65.9102 14.008C65.9102 13.592 65.7662 13.288 65.4782 13.096C65.2222 12.904 64.9182 12.808 64.5662 12.808C64.2462 12.808 63.9262 12.824 63.6062 12.856C63.3182 12.888 63.0142 12.904 62.6942 12.904C62.4062 12.904 62.2622 12.744 62.2622 12.424C62.2622 12.104 62.4062 11.928 62.6942 11.896C63.0782 11.832 63.4782 11.8 63.8942 11.8C64.3102 11.768 64.7262 11.736 65.1422 11.704L68.4542 11.368C68.6782 11.336 68.9022 11.304 69.1262 11.272C69.3822 11.24 69.6222 11.224 69.8462 11.224C70.0062 11.224 70.1182 11.32 70.1822 11.512C70.2462 11.672 70.2782 11.8 70.2782 11.896C70.1822 18.84 70.1342 25.768 70.1342 32.68C70.1342 33.48 70.3102 34.136 70.6622 34.648C71.0462 35.16 71.6702 35.416 72.5342 35.416C72.7902 35.416 73.0142 35.384 73.2062 35.32C73.4302 35.256 73.6542 35.224 73.8782 35.224C74.2302 35.224 74.4062 35.384 74.4062 35.704Z" fill="black"/>
<path d="M94.7548 30.136C94.7548 31.576 94.4348 32.76 93.7948 33.688C93.1548 34.584 92.3228 35.272 91.2988 35.752C90.2748 36.232 89.1548 36.568 87.9388 36.76C86.7228 36.952 85.5388 37.048 84.3868 37.048C83.3308 37.048 82.2748 36.936 81.2188 36.712C80.1948 36.488 79.1548 36.328 78.0988 36.232C77.8748 35.368 77.6508 34.504 77.4268 33.64C77.2348 32.776 77.0108 31.928 76.7548 31.096C76.7228 31 76.6428 30.776 76.5148 30.424C76.4188 30.072 76.3708 29.88 76.3708 29.848C76.3708 29.592 76.4508 29.416 76.6108 29.32C76.7708 29.192 76.9628 29.128 77.1868 29.128C77.4108 29.128 77.5708 29.208 77.6668 29.368C77.8588 29.592 78.0188 29.896 78.1468 30.28C78.3068 30.664 78.4508 31 78.5788 31.288C78.8348 31.8 79.0588 32.2 79.2508 32.488C79.4428 32.744 79.7468 33.08 80.1628 33.496C81.4108 34.808 82.9628 35.464 84.8188 35.464C85.8428 35.464 86.7708 35.352 87.6028 35.128C88.4668 34.904 89.1548 34.488 89.6668 33.88C90.1788 33.24 90.4348 32.328 90.4348 31.144C90.4348 30.12 90.1148 29.272 89.4748 28.6C88.8348 27.896 88.0028 27.272 86.9788 26.728C85.9868 26.184 84.9308 25.656 83.8108 25.144C82.6908 24.632 81.6188 24.072 80.5948 23.464C79.6028 22.824 78.7868 22.056 78.1468 21.16C77.5068 20.264 77.1868 19.176 77.1868 17.896C77.1868 16.328 77.5868 15.048 78.3868 14.056C79.2188 13.064 80.2748 12.328 81.5548 11.848C82.8348 11.336 84.1628 11.08 85.5388 11.08C86.4348 11.08 87.2348 11.192 87.9388 11.416C88.6748 11.64 89.4428 11.896 90.2428 12.184C90.4988 12.28 90.7548 12.344 91.0108 12.376C91.2668 12.408 91.5228 12.424 91.7788 12.424C91.9388 12.424 92.0828 12.424 92.2108 12.424C92.3388 12.424 92.4668 12.408 92.5948 12.376C92.6908 12.952 92.7708 13.544 92.8348 14.152C92.9308 14.728 93.0108 15.32 93.0748 15.928C93.1068 16.152 93.1388 16.424 93.1708 16.744C93.2348 17.032 93.2668 17.304 93.2668 17.56C93.2668 17.784 93.2188 18.024 93.1228 18.28C93.0268 18.504 92.8348 18.616 92.5468 18.616C92.3228 18.616 92.1308 18.6 91.9708 18.568C91.8428 18.504 91.7308 18.36 91.6348 18.136C91.4748 17.816 91.3308 17.48 91.2028 17.128C91.1068 16.744 90.9948 16.392 90.8668 16.072C90.4508 14.952 89.7308 14.056 88.7068 13.384C87.6828 12.68 86.5788 12.328 85.3948 12.328C83.8908 12.328 82.7548 12.776 81.9868 13.672C81.2188 14.536 80.8348 15.704 80.8348 17.176C80.8348 17.688 80.9628 18.184 81.2188 18.664C81.5068 19.144 81.8268 19.56 82.1788 19.912C82.8508 20.552 83.6348 21.048 84.5308 21.4C85.4588 21.752 86.3388 22.104 87.1708 22.456C88.2588 22.936 89.3788 23.512 90.5308 24.184C91.7148 24.856 92.7068 25.672 93.5068 26.632C94.3388 27.592 94.7548 28.76 94.7548 30.136Z" fill="black"/>
<path d="M111.521 36.28C111.521 36.44 111.473 36.6 111.377 36.76C111.281 36.888 111.153 36.952 110.993 36.952C110.097 36.952 109.201 36.936 108.305 36.904C107.441 36.84 106.545 36.808 105.617 36.808H104.321C103.361 36.808 102.401 36.84 101.441 36.904C100.513 36.936 99.5847 36.952 98.6567 36.952C98.5287 36.952 98.4327 36.872 98.3687 36.712C98.3367 36.552 98.3207 36.424 98.3207 36.328C98.3207 36.168 98.3367 36.056 98.3687 35.992C98.4007 35.896 98.4967 35.832 98.6567 35.8C98.8167 35.736 98.9927 35.72 99.1847 35.752C99.4087 35.752 99.6167 35.752 99.8087 35.752C100.033 35.752 100.241 35.768 100.433 35.8C100.625 35.8 100.833 35.8 101.057 35.8C101.505 35.8 101.905 35.704 102.257 35.512C102.641 35.288 102.833 34.92 102.833 34.408V15.208C102.833 14.664 102.737 14.248 102.545 13.96C102.353 13.64 101.953 13.48 101.345 13.48C100.897 13.48 100.433 13.512 99.9527 13.576C99.5047 13.608 99.0567 13.656 98.6087 13.72C98.3527 13.72 98.2247 13.576 98.2247 13.288C98.2247 12.968 98.3527 12.76 98.6087 12.664C98.9927 12.536 99.3927 12.456 99.8087 12.424C100.257 12.36 100.673 12.296 101.057 12.232C101.953 12.072 102.849 11.896 103.745 11.704C104.641 11.512 105.521 11.304 106.385 11.08C106.481 11.048 106.609 11.032 106.769 11.032C107.121 11.032 107.297 11.224 107.297 11.608C107.297 15.384 107.281 19.176 107.249 22.984C107.249 26.792 107.249 30.6 107.249 34.408C107.249 34.92 107.473 35.288 107.921 35.512C108.401 35.704 108.849 35.8 109.265 35.8C109.585 35.8 109.905 35.784 110.225 35.752C110.577 35.72 110.913 35.704 111.233 35.704C111.361 35.704 111.441 35.784 111.473 35.944C111.505 36.104 111.521 36.216 111.521 36.28ZM107.633 3.06402C107.633 3.86402 107.345 4.55202 106.769 5.12802C106.193 5.67202 105.505 5.94402 104.705 5.94402C103.905 5.94402 103.217 5.67202 102.641 5.12802C102.065 4.55202 101.777 3.86402 101.777 3.06402C101.777 2.26402 102.065 1.59202 102.641 1.04802C103.217 0.472019 103.905 0.184021 104.705 0.184021C105.505 0.184021 106.193 0.472019 106.769 1.04802C107.345 1.59202 107.633 2.26402 107.633 3.06402Z" fill="black"/>
<path d="M138.005 31.048C138.005 31.272 137.829 31.592 137.477 32.008C137.125 32.392 136.869 32.664 136.709 32.824C136.421 33.112 136.133 33.4 135.845 33.688C135.557 33.976 135.237 34.248 134.885 34.504C133.893 35.208 132.709 35.816 131.333 36.328C129.957 36.808 128.661 37.048 127.445 37.048C125.013 37.048 122.869 36.52 121.013 35.464C119.189 34.376 117.749 32.904 116.693 31.048C115.669 29.16 115.157 27.016 115.157 24.616C115.157 22.248 115.637 20.024 116.597 17.944C117.557 15.864 119.077 14.184 121.157 12.904C122.053 12.36 123.045 11.928 124.133 11.608C125.253 11.288 126.325 11.128 127.349 11.128C128.149 11.128 128.917 11.224 129.653 11.416C130.421 11.608 131.157 11.864 131.861 12.184C132.277 12.376 132.677 12.568 133.061 12.76C133.445 12.952 133.861 13.048 134.309 13.048C134.693 13.048 134.997 12.936 135.221 12.712C135.477 12.456 135.669 12.328 135.797 12.328C135.893 12.328 135.941 12.392 135.941 12.52C136.005 12.904 136.021 13.288 135.989 13.672C135.989 14.056 136.005 14.424 136.037 14.776C136.069 15.48 136.101 16.184 136.133 16.888C136.165 17.592 136.197 18.296 136.229 19V19.144C136.261 19.496 136.229 19.768 136.133 19.96C136.037 20.152 135.781 20.248 135.365 20.248C135.141 20.248 134.981 20.12 134.885 19.864C134.821 19.608 134.757 19.384 134.693 19.192C134.469 18.264 134.133 17.272 133.685 16.216C133.237 15.16 132.629 14.312 131.861 13.672C131.381 13.224 130.773 12.856 130.037 12.568C129.333 12.28 128.661 12.136 128.021 12.136C126.485 12.136 125.173 12.536 124.085 13.336C123.029 14.104 122.181 15.112 121.541 16.36C120.901 17.576 120.421 18.888 120.101 20.296C119.813 21.704 119.669 23.032 119.669 24.28C119.669 25.528 119.813 26.808 120.101 28.12C120.389 29.4 120.837 30.6 121.445 31.72C122.085 32.84 122.917 33.736 123.941 34.408C124.997 35.08 126.261 35.416 127.733 35.416C129.781 35.416 131.493 35.048 132.869 34.312C134.245 33.544 135.573 32.376 136.853 30.808C136.981 30.584 137.157 30.472 137.381 30.472C137.797 30.472 138.005 30.664 138.005 31.048Z" fill="black"/>
</svg>
