<svg width="655" height="313" viewBox="0 0 655 313" fill="none" xmlns="http://www.w3.org/2000/svg">
<path d="M149.906 65.5938C154.594 65.4375 158.484 64.8906 161.578 63.9531C164.672 63.0156 167.141 61.5156 168.984 59.4531C170.828 57.3906 172.125 54.6875 172.875 51.3438C173.656 47.9688 174.047 43.75 174.047 38.6875V15.2031C170.297 15.8906 166.688 16.9844 163.219 18.4844C159.75 19.9844 156.578 21.8438 153.703 24.0625C150.859 26.2812 148.375 28.8125 146.25 31.6562C144.125 34.5 142.547 37.6094 141.516 40.9844H136.594C136.594 39.7656 136.609 38.3281 136.641 36.6719C136.703 34.9844 136.766 33.2031 136.828 31.3281C136.922 29.4219 137.031 27.4688 137.156 25.4688C137.312 23.4375 137.469 21.4688 137.625 19.5625C137.812 17.625 138.016 15.7969 138.234 14.0781C138.453 12.3594 138.703 10.8281 138.984 9.48438H257.859C258.141 10.8281 258.391 12.3594 258.609 14.0781C258.828 15.7969 259.016 17.625 259.172 19.5625C259.359 21.4688 259.516 23.4375 259.641 25.4688C259.797 27.4688 259.906 29.4219 259.969 31.3281C260.062 33.2031 260.125 34.9844 260.156 36.6719C260.219 38.3281 260.25 39.7656 260.25 40.9844H255.328C254.203 37.8281 252.516 34.8438 250.266 32.0312C248.016 29.1875 245.422 26.6406 242.484 24.3906C239.578 22.1094 236.422 20.1875 233.016 18.625C229.641 17.0312 226.234 15.8906 222.797 15.2031V40.1875C222.859 44.9375 223.297 48.9062 224.109 52.0938C224.922 55.2812 226.25 57.8594 228.094 59.8281C229.938 61.7656 232.375 63.1719 235.406 64.0469C238.469 64.9219 242.281 65.4375 246.844 65.5938V70H149.906V65.5938Z" fill="black"/>
<path d="M269.203 65.5938C272.016 65.5 274.469 65.2656 276.562 64.8906C278.656 64.5156 280.453 63.9219 281.953 63.1094C283.453 62.2969 284.688 61.2188 285.656 59.875C286.625 58.5312 287.391 56.8281 287.953 54.7656C288.547 52.6719 288.953 50.1719 289.172 47.2656C289.391 44.3281 289.5 40.9062 289.5 37C289.5 31.0625 289.094 26.25 288.281 22.5625C287.469 18.875 286.188 16.0156 284.438 13.9844C282.688 11.9219 280.438 10.5312 277.688 9.8125C274.969 9.09375 271.672 8.73438 267.797 8.73438V4.375L330.703 0.15625V27.8125C333.516 26.5625 336.391 25.3906 339.328 24.2969C342.297 23.2031 345.312 22.25 348.375 21.4375C351.469 20.625 354.609 19.9844 357.797 19.5156C360.984 19.0469 364.25 18.8125 367.594 18.8125C369.312 18.8125 371.062 18.875 372.844 19C374.625 19.125 376.359 19.4375 378.047 19.9375C379.766 20.4062 381.375 21.125 382.875 22.0938C384.375 23.0312 385.672 24.3438 386.766 26.0312C387.891 27.6875 388.781 29.7656 389.438 32.2656C390.094 34.7656 390.422 37.7812 390.422 41.3125C390.422 42.5 390.375 43.7188 390.281 44.9688C390.219 46.1875 390.188 47.5312 390.188 49C390.188 50.8438 390.219 52.5312 390.281 54.0625C390.375 55.5938 390.594 56.9844 390.938 58.2344C391.281 59.4531 391.797 60.5312 392.484 61.4688C393.203 62.375 394.188 63.1406 395.438 63.7656C396.719 64.3594 398.312 64.8125 400.219 65.125C402.125 65.4375 404.453 65.5938 407.203 65.5938V70H341.766V66.4375C342.766 65.7812 343.609 64.9219 344.297 63.8594C344.984 62.7656 345.531 61.4375 345.938 59.875C346.375 58.3125 346.688 56.4844 346.875 54.3906C347.062 52.2656 347.156 49.8438 347.156 47.125C347.156 43.6562 346.906 40.8906 346.406 38.8281C345.938 36.7656 345.281 35.2031 344.438 34.1406C343.594 33.0469 342.594 32.3438 341.438 32.0312C340.312 31.7188 339.094 31.5625 337.781 31.5625C336.688 31.5625 335.531 31.6875 334.312 31.9375C333.125 32.1562 331.922 32.4688 330.703 32.875V47.9688C330.703 50.6875 330.797 53.0625 330.984 55.0938C331.172 57.0938 331.469 58.8281 331.875 60.2969C332.312 61.7656 332.875 63 333.562 64C334.25 64.9688 335.094 65.7812 336.094 66.4375V70H269.203V65.5938Z" fill="black"/>
<path d="M413.203 46.6562C413.203 43.5 413.875 40.625 415.219 38.0312C416.562 35.4062 418.453 33.0625 420.891 31C423.359 28.9375 426.344 27.1406 429.844 25.6094C433.344 24.0781 437.234 22.8125 441.516 21.8125C445.828 20.8125 450.484 20.0625 455.484 19.5625C460.484 19.0625 465.734 18.8125 471.234 18.8125C478.578 18.8125 485.234 19.3281 491.203 20.3594C497.172 21.3906 502.266 23 506.484 25.1875C510.734 27.3438 514.016 30.125 516.328 33.5312C518.641 36.9375 519.797 41.0156 519.797 45.7656H458.672C458.891 49.3906 459.5 52.4531 460.5 54.9531C461.531 57.4531 463 59.4844 464.906 61.0469C466.844 62.5781 469.234 63.6875 472.078 64.375C474.922 65.0312 478.266 65.3594 482.109 65.3594C484.516 65.3594 486.953 65.25 489.422 65.0312C491.922 64.7812 494.344 64.4219 496.688 63.9531C499.031 63.4531 501.234 62.8594 503.297 62.1719C505.359 61.4531 507.156 60.625 508.688 59.6875C510.219 58.7188 511.422 57.6562 512.297 56.5C513.203 55.3125 513.656 54.0156 513.656 52.6094H519.797C519.797 54.9219 519.172 57 517.922 58.8438C516.703 60.6875 515 62.3438 512.812 63.8125C510.625 65.25 508.031 66.5 505.031 67.5625C502.062 68.5938 498.812 69.4375 495.281 70.0938C491.781 70.7812 488.094 71.2812 484.219 71.5938C480.344 71.9375 476.422 72.1094 472.453 72.1094C463.484 72.1094 455.344 71.6719 448.031 70.7969C440.75 69.9219 434.531 68.4844 429.375 66.4844C424.219 64.4844 420.234 61.875 417.422 58.6562C414.609 55.4062 413.203 51.4062 413.203 46.6562ZM477.609 40.5156C477.609 37.6719 477.375 35.25 476.906 33.25C476.469 31.2188 475.859 29.5625 475.078 28.2812C474.328 27 473.422 26.0625 472.359 25.4688C471.297 24.8438 470.156 24.5312 468.938 24.5312C467.594 24.5312 466.312 24.8438 465.094 25.4688C463.906 26.0625 462.844 27.0156 461.906 28.3281C461 29.6094 460.25 31.2656 459.656 33.2969C459.094 35.2969 458.75 37.7031 458.625 40.5156H477.609Z" fill="black"/>
<path d="M0.984375 185.594C5.67188 185.438 9.5625 184.891 12.6562 183.953C15.75 183.016 18.2188 181.516 20.0625 179.453C21.9062 177.391 23.2031 174.688 23.9531 171.344C24.7344 167.969 25.125 163.75 25.125 158.688C25.125 155.281 24.9219 152.297 24.5156 149.734C24.1406 147.172 23.5312 144.984 22.6875 143.172C21.875 141.328 20.8125 139.812 19.5 138.625C18.2188 137.406 16.6875 136.453 14.9062 135.766C13.125 135.078 11.0781 134.594 8.76562 134.312C6.45312 134.031 3.85938 133.891 0.984375 133.891V129.484H79.7812V133.891C78.5 133.891 77.4688 134.203 76.6875 134.828C75.9375 135.453 75.3438 136.625 74.9062 138.344C74.5 140.062 74.2188 142.469 74.0625 145.562C73.9375 148.656 73.875 152.656 73.875 157.562H94.5938C94.5938 152.656 94.5156 148.656 94.3594 145.562C94.2031 142.469 93.9062 140.062 93.4688 138.344C93.0625 136.625 92.4688 135.453 91.6875 134.828C90.9375 134.203 89.9375 133.891 88.6875 133.891V129.484H167.391V133.891C163.109 133.891 159.438 134.219 156.375 134.875C153.344 135.531 150.859 136.781 148.922 138.625C146.984 140.438 145.562 142.953 144.656 146.172C143.75 149.391 143.297 153.562 143.297 158.688C143.297 163.75 143.672 167.969 144.422 171.344C145.203 174.688 146.516 177.391 148.359 179.453C150.203 181.516 152.672 183.016 155.766 183.953C158.859 184.891 162.734 185.438 167.391 185.594V190H88.6875V185.594C89.4375 185.469 90.1406 185.016 90.7969 184.234C91.4531 183.422 92.0312 182.156 92.5312 180.438C93.0625 178.719 93.5 176.484 93.8438 173.734C94.1875 170.953 94.4062 167.547 94.5 163.516H73.9219C74.0156 167.547 74.2344 170.953 74.5781 173.734C74.9219 176.484 75.3438 178.719 75.8438 180.438C76.375 182.156 76.9688 183.422 77.625 184.234C78.3125 185.016 79.0312 185.469 79.7812 185.594V190H0.984375V185.594Z" fill="black"/>
<path d="M177.375 165.484C177.375 160.953 178.719 157.016 181.406 153.672C184.125 150.297 187.953 147.516 192.891 145.328C197.828 143.109 203.75 141.469 210.656 140.406C217.562 139.312 225.234 138.766 233.672 138.766C242.078 138.766 249.734 139.312 256.641 140.406C263.578 141.469 269.5 143.109 274.406 145.328C279.344 147.516 283.156 150.297 285.844 153.672C288.562 157.016 289.922 160.953 289.922 165.484C289.922 169.984 288.562 173.906 285.844 177.25C283.156 180.594 279.344 183.375 274.406 185.594C269.5 187.781 263.578 189.406 256.641 190.469C249.734 191.562 242.078 192.109 233.672 192.109C225.234 192.109 217.562 191.562 210.656 190.469C203.75 189.406 197.828 187.781 192.891 185.594C187.953 183.375 184.125 180.594 181.406 177.25C178.719 173.906 177.375 169.984 177.375 165.484ZM224.109 165.484C224.109 168.391 224.328 171.156 224.766 173.781C225.203 176.406 225.828 178.719 226.641 180.719C227.484 182.688 228.484 184.266 229.641 185.453C230.828 186.609 232.172 187.188 233.672 187.188C235.141 187.188 236.453 186.609 237.609 185.453C238.797 184.266 239.797 182.688 240.609 180.719C241.453 178.719 242.094 176.406 242.531 173.781C242.969 171.156 243.188 168.391 243.188 165.484C243.188 162.547 242.969 159.766 242.531 157.141C242.094 154.484 241.453 152.156 240.609 150.156C239.797 148.156 238.797 146.562 237.609 145.375C236.453 144.188 235.141 143.594 233.672 143.594C232.172 143.594 230.828 144.188 229.641 145.375C228.484 146.562 227.484 148.156 226.641 150.156C225.828 152.156 225.203 154.484 224.766 157.141C224.328 159.766 224.109 162.547 224.109 165.484Z" fill="black"/>
<path d="M310.078 175.188C310.078 174.219 310.109 173.125 310.172 171.906C310.266 170.656 310.359 169.391 310.453 168.109C310.547 166.797 310.625 165.516 310.688 164.266C310.781 163.016 310.828 161.875 310.828 160.844C310.828 159.25 310.703 157.656 310.453 156.062C310.234 154.438 309.719 152.984 308.906 151.703C308.094 150.391 306.875 149.328 305.25 148.516C303.656 147.703 301.5 147.297 298.781 147.297C297.812 147.297 296.766 147.344 295.641 147.438V143.031L353.391 138.812V166.328C353.391 168.672 353.516 170.719 353.766 172.469C354.047 174.188 354.531 175.625 355.219 176.781C355.938 177.906 356.906 178.766 358.125 179.359C359.344 179.922 360.891 180.203 362.766 180.203C363.766 180.203 364.797 180.125 365.859 179.969C366.953 179.781 368.047 179.516 369.141 179.172V161.078C369.141 158.359 368.875 156.094 368.344 154.281C367.844 152.469 367.156 151 366.281 149.875C365.406 148.719 364.375 147.844 363.188 147.25C362.031 146.625 360.797 146.141 359.484 145.797V142.188L410.344 137.969V168.062C410.344 171.125 410.531 173.734 410.906 175.891C411.281 178.047 412.062 179.828 413.25 181.234C414.438 182.609 416.141 183.656 418.359 184.375C420.609 185.094 423.594 185.531 427.312 185.688L427.594 190.094C425.469 190.094 423.016 190.109 420.234 190.141C417.484 190.172 414.594 190.219 411.562 190.281C408.562 190.344 405.5 190.406 402.375 190.469C399.281 190.531 396.297 190.594 393.422 190.656C390.578 190.719 387.953 190.766 385.547 190.797C383.141 190.828 381.141 190.844 379.547 190.844C378.172 190.844 376.938 190.641 375.844 190.234C374.781 189.859 373.828 189.359 372.984 188.734C372.172 188.078 371.484 187.344 370.922 186.531C370.391 185.688 369.984 184.812 369.703 183.906C367.047 185.188 364.391 186.328 361.734 187.328C359.109 188.328 356.406 189.188 353.625 189.906C350.875 190.625 348.016 191.172 345.047 191.547C342.078 191.922 338.953 192.109 335.672 192.109C334.016 192.109 332.234 192.062 330.328 191.969C328.422 191.906 326.516 191.703 324.609 191.359C322.734 191.047 320.906 190.547 319.125 189.859C317.375 189.141 315.828 188.156 314.484 186.906C313.141 185.625 312.062 184.047 311.25 182.172C310.469 180.266 310.078 177.938 310.078 175.188Z" fill="black"/>
<path d="M439.359 192.625C439.016 191.875 438.688 190.797 438.375 189.391C438.094 187.984 437.844 186.516 437.625 184.984C437.438 183.453 437.281 181.984 437.156 180.578C437.031 179.141 436.969 178.047 436.969 177.297H442.734C443.578 178.703 445.188 179.984 447.562 181.141C449.938 182.297 452.922 183.281 456.516 184.094C460.109 184.906 464.234 185.531 468.891 185.969C473.547 186.406 478.562 186.625 483.938 186.625C487.031 186.625 489.469 186.219 491.25 185.406C493.031 184.594 493.922 183.578 493.922 182.359C493.922 181.297 493.359 180.453 492.234 179.828C491.141 179.172 489.641 178.656 487.734 178.281C485.828 177.875 483.609 177.578 481.078 177.391C478.547 177.172 475.844 176.969 472.969 176.781C470.125 176.594 467.188 176.375 464.156 176.125C461.156 175.844 458.219 175.469 455.344 175C452.5 174.5 449.812 173.859 447.281 173.078C444.75 172.266 442.531 171.234 440.625 169.984C438.719 168.703 437.203 167.156 436.078 165.344C434.984 163.5 434.438 161.297 434.438 158.734C434.438 156.359 434.906 154.219 435.844 152.312C436.781 150.406 438.109 148.719 439.828 147.25C441.547 145.781 443.594 144.516 445.969 143.453C448.375 142.391 451.016 141.516 453.891 140.828C456.797 140.141 459.906 139.641 463.219 139.328C466.531 138.984 469.953 138.812 473.484 138.812C476.172 138.812 478.922 138.875 481.734 139C484.578 139.094 487.391 139.234 490.172 139.422C492.953 139.578 495.656 139.75 498.281 139.938C500.906 140.125 503.359 140.312 505.641 140.5C507.922 140.656 509.984 140.797 511.828 140.922C513.672 141.016 515.188 141.062 516.375 141.062C517.5 141.062 518.672 141.031 519.891 140.969C521.109 140.875 522.297 140.734 523.453 140.547C524.641 140.359 525.734 140.125 526.734 139.844C527.766 139.562 528.641 139.203 529.359 138.766C529.703 139.516 530.016 140.531 530.297 141.812C530.609 143.062 530.859 144.391 531.047 145.797C531.266 147.172 531.438 148.5 531.562 149.781C531.688 151.062 531.75 152.109 531.75 152.922H526.125C525.5 151.891 524.047 150.828 521.766 149.734C519.516 148.609 516.641 147.609 513.141 146.734C509.641 145.828 505.641 145.094 501.141 144.531C496.672 143.938 491.922 143.641 486.891 143.641C486.359 143.641 485.672 143.688 484.828 143.781C484.016 143.844 483.219 144.016 482.438 144.297C481.688 144.547 481.031 144.938 480.469 145.469C479.906 145.969 479.625 146.641 479.625 147.484C479.625 148.516 480.156 149.359 481.219 150.016C482.281 150.672 483.734 151.219 485.578 151.656C487.422 152.094 489.562 152.469 492 152.781C494.438 153.062 497.031 153.359 499.781 153.672C502.531 153.953 505.359 154.297 508.266 154.703C511.172 155.078 514 155.578 516.75 156.203C519.5 156.797 522.094 157.547 524.531 158.453C526.969 159.359 529.109 160.5 530.953 161.875C532.797 163.219 534.25 164.844 535.312 166.75C536.375 168.625 536.906 170.828 536.906 173.359C536.906 176.078 535.984 178.578 534.141 180.859C532.328 183.141 529.781 185.125 526.5 186.812C523.219 188.469 519.328 189.766 514.828 190.703C510.328 191.641 505.406 192.109 500.062 192.109C495.688 192.109 491.359 192 487.078 191.781C482.828 191.562 478.672 191.312 474.609 191.031C470.547 190.75 466.594 190.5 462.75 190.281C458.906 190.062 455.234 189.953 451.734 189.953C450.641 189.953 449.5 190 448.312 190.094C447.156 190.188 446.031 190.344 444.938 190.562C443.844 190.781 442.812 191.047 441.844 191.359C440.875 191.703 440.047 192.125 439.359 192.625Z" fill="black"/>
<path d="M548.062 166.656C548.062 163.5 548.734 160.625 550.078 158.031C551.422 155.406 553.312 153.062 555.75 151C558.219 148.938 561.203 147.141 564.703 145.609C568.203 144.078 572.094 142.812 576.375 141.812C580.688 140.812 585.344 140.062 590.344 139.562C595.344 139.062 600.594 138.812 606.094 138.812C613.438 138.812 620.094 139.328 626.062 140.359C632.031 141.391 637.125 143 641.344 145.188C645.594 147.344 648.875 150.125 651.188 153.531C653.5 156.938 654.656 161.016 654.656 165.766H593.531C593.75 169.391 594.359 172.453 595.359 174.953C596.391 177.453 597.859 179.484 599.766 181.047C601.703 182.578 604.094 183.688 606.938 184.375C609.781 185.031 613.125 185.359 616.969 185.359C619.375 185.359 621.812 185.25 624.281 185.031C626.781 184.781 629.203 184.422 631.547 183.953C633.891 183.453 636.094 182.859 638.156 182.172C640.219 181.453 642.016 180.625 643.547 179.688C645.078 178.719 646.281 177.656 647.156 176.5C648.062 175.312 648.516 174.016 648.516 172.609H654.656C654.656 174.922 654.031 177 652.781 178.844C651.562 180.688 649.859 182.344 647.672 183.812C645.484 185.25 642.891 186.5 639.891 187.562C636.922 188.594 633.672 189.438 630.141 190.094C626.641 190.781 622.953 191.281 619.078 191.594C615.203 191.938 611.281 192.109 607.312 192.109C598.344 192.109 590.203 191.672 582.891 190.797C575.609 189.922 569.391 188.484 564.234 186.484C559.078 184.484 555.094 181.875 552.281 178.656C549.469 175.406 548.062 171.406 548.062 166.656ZM612.469 160.516C612.469 157.672 612.234 155.25 611.766 153.25C611.328 151.219 610.719 149.562 609.938 148.281C609.188 147 608.281 146.062 607.219 145.469C606.156 144.844 605.016 144.531 603.797 144.531C602.453 144.531 601.172 144.844 599.953 145.469C598.766 146.062 597.703 147.016 596.766 148.328C595.859 149.609 595.109 151.266 594.516 153.297C593.953 155.297 593.609 157.703 593.484 160.516H612.469Z" fill="black"/>
<path d="M95.5781 279.438C95.5781 274.531 96.9062 270.078 99.5625 266.078C102.25 262.078 106.047 258.656 110.953 255.812C115.891 252.969 121.844 250.781 128.812 249.25C135.781 247.688 143.562 246.906 152.156 246.906C156.75 246.906 161.094 247.094 165.188 247.469C169.281 247.844 173.094 248.25 176.625 248.688C180.156 249.125 183.391 249.531 186.328 249.906C189.297 250.281 191.969 250.469 194.344 250.469C194.906 250.469 195.531 250.375 196.219 250.188C196.938 250 197.641 249.75 198.328 249.438C199.016 249.094 199.656 248.688 200.25 248.219C200.844 247.75 201.312 247.219 201.656 246.625H211.969C212.906 248.25 213.766 250.203 214.547 252.484C215.328 254.734 215.984 257.078 216.516 259.516C217.078 261.953 217.516 264.375 217.828 266.781C218.141 269.156 218.297 271.281 218.297 273.156H211.266C210.672 271 209.734 269.047 208.453 267.297C207.203 265.516 205.703 263.938 203.953 262.562C202.203 261.188 200.281 259.984 198.188 258.953C196.094 257.922 193.922 257.078 191.672 256.422C189.453 255.766 187.219 255.281 184.969 254.969C182.719 254.625 180.578 254.453 178.547 254.453C175.141 254.453 171.875 254.891 168.75 255.766C165.656 256.641 162.922 258.094 160.547 260.125C158.172 262.156 156.266 264.844 154.828 268.188C153.422 271.5 152.719 275.609 152.719 280.516C152.719 284.672 153.484 288.297 155.016 291.391C156.578 294.484 158.641 297.062 161.203 299.125C163.797 301.156 166.766 302.688 170.109 303.719C173.453 304.719 176.938 305.219 180.562 305.219C182.781 305.219 185.062 305.031 187.406 304.656C189.75 304.281 192.031 303.719 194.25 302.969C196.5 302.219 198.625 301.281 200.625 300.156C202.656 299 204.453 297.641 206.016 296.078C207.578 294.516 208.859 292.75 209.859 290.781C210.891 288.781 211.531 286.578 211.781 284.172H218.766C218.766 288.547 217.625 292.5 215.344 296.031C213.062 299.531 209.656 302.516 205.125 304.984C200.625 307.453 195.016 309.344 188.297 310.656C181.609 312 173.844 312.672 165 312.672C158.094 312.672 151.578 312.453 145.453 312.016C139.359 311.578 133.734 310.859 128.578 309.859C123.453 308.859 118.844 307.531 114.75 305.875C110.688 304.188 107.234 302.125 104.391 299.688C101.547 297.219 99.3594 294.312 97.8281 290.969C96.3281 287.625 95.5781 283.781 95.5781 279.438Z" fill="black"/>
<path d="M227.672 305.594C230.484 305.5 232.938 305.297 235.031 304.984C237.125 304.641 238.922 304.094 240.422 303.344C241.922 302.562 243.156 301.531 244.125 300.25C245.094 298.938 245.859 297.234 246.422 295.141C247.016 293.047 247.422 290.516 247.641 287.547C247.859 284.578 247.969 281.062 247.969 277C247.969 273.031 247.812 269.578 247.5 266.641C247.188 263.703 246.672 261.188 245.953 259.094C245.266 257 244.359 255.281 243.234 253.938C242.141 252.594 240.781 251.547 239.156 250.797C237.562 250.016 235.688 249.484 233.531 249.203C231.406 248.891 228.984 248.734 226.266 248.734V244.375L289.172 240.156V287.969C289.172 291.031 289.453 293.641 290.016 295.797C290.609 297.953 291.625 299.734 293.062 301.141C294.5 302.516 296.438 303.562 298.875 304.281C301.312 305 304.406 305.438 308.156 305.594V310H227.672V305.594Z" fill="black"/>
<path d="M323.719 295.188C323.719 294.219 323.75 293.125 323.812 291.906C323.906 290.656 324 289.391 324.094 288.109C324.188 286.797 324.266 285.516 324.328 284.266C324.422 283.016 324.469 281.875 324.469 280.844C324.469 279.25 324.344 277.656 324.094 276.062C323.875 274.438 323.359 272.984 322.547 271.703C321.734 270.391 320.516 269.328 318.891 268.516C317.297 267.703 315.141 267.297 312.422 267.297C311.453 267.297 310.406 267.344 309.281 267.438V263.031L367.031 258.812V286.328C367.031 288.672 367.156 290.719 367.406 292.469C367.688 294.188 368.172 295.625 368.859 296.781C369.578 297.906 370.547 298.766 371.766 299.359C372.984 299.922 374.531 300.203 376.406 300.203C377.406 300.203 378.438 300.125 379.5 299.969C380.594 299.781 381.688 299.516 382.781 299.172V281.078C382.781 278.359 382.516 276.094 381.984 274.281C381.484 272.469 380.797 271 379.922 269.875C379.047 268.719 378.016 267.844 376.828 267.25C375.672 266.625 374.438 266.141 373.125 265.797V262.188L423.984 257.969V288.062C423.984 291.125 424.172 293.734 424.547 295.891C424.922 298.047 425.703 299.828 426.891 301.234C428.078 302.609 429.781 303.656 432 304.375C434.25 305.094 437.234 305.531 440.953 305.688L441.234 310.094C439.109 310.094 436.656 310.109 433.875 310.141C431.125 310.172 428.234 310.219 425.203 310.281C422.203 310.344 419.141 310.406 416.016 310.469C412.922 310.531 409.938 310.594 407.062 310.656C404.219 310.719 401.594 310.766 399.188 310.797C396.781 310.828 394.781 310.844 393.188 310.844C391.812 310.844 390.578 310.641 389.484 310.234C388.422 309.859 387.469 309.359 386.625 308.734C385.812 308.078 385.125 307.344 384.562 306.531C384.031 305.688 383.625 304.812 383.344 303.906C380.688 305.188 378.031 306.328 375.375 307.328C372.75 308.328 370.047 309.188 367.266 309.906C364.516 310.625 361.656 311.172 358.688 311.547C355.719 311.922 352.594 312.109 349.312 312.109C347.656 312.109 345.875 312.062 343.969 311.969C342.062 311.906 340.156 311.703 338.25 311.359C336.375 311.047 334.547 310.547 332.766 309.859C331.016 309.141 329.469 308.156 328.125 306.906C326.781 305.625 325.703 304.047 324.891 302.172C324.109 300.266 323.719 297.938 323.719 295.188Z" fill="black"/>
<path d="M452.625 308.734C452.938 308.109 453.203 307.406 453.422 306.625C453.641 305.844 453.828 304.891 453.984 303.766C454.141 302.609 454.266 301.266 454.359 299.734C454.484 298.172 454.562 296.312 454.594 294.156C454.656 292 454.688 289.516 454.688 286.703C454.719 283.891 454.734 280.656 454.734 277C454.734 271.062 454.328 266.25 453.516 262.562C452.703 258.875 451.422 256.016 449.672 253.984C447.922 251.922 445.672 250.531 442.922 249.812C440.203 249.094 436.906 248.734 433.031 248.734V244.375L495.938 240.156V265.938C497.25 264.938 498.797 264.016 500.578 263.172C502.359 262.297 504.438 261.547 506.812 260.922C509.188 260.266 511.875 259.75 514.875 259.375C517.906 259 521.312 258.812 525.094 258.812C530.562 258.812 535.531 259.406 540 260.594C544.5 261.781 548.344 263.5 551.531 265.75C554.719 268 557.172 270.734 558.891 273.953C560.641 277.172 561.516 280.812 561.516 284.875C561.516 289.406 560.594 293.375 558.75 296.781C556.906 300.188 554.25 303.031 550.781 305.312C547.312 307.562 543.078 309.25 538.078 310.375C533.078 311.531 527.438 312.109 521.156 312.109C516.719 312.109 512.656 311.938 508.969 311.594C505.281 311.25 501.75 310.859 498.375 310.422C495 310.016 491.656 309.641 488.344 309.297C485.062 308.953 481.594 308.781 477.938 308.781C472.875 308.781 468.609 308.938 465.141 309.25C461.672 309.531 458.812 310.062 456.562 310.844L452.625 308.734ZM495.938 304.141C497.531 304.766 499.141 305.25 500.766 305.594C502.422 305.938 504.141 306.109 505.922 306.109C507.672 306.109 509.125 305.766 510.281 305.078C511.469 304.359 512.406 303.219 513.094 301.656C513.812 300.094 514.312 298.062 514.594 295.562C514.875 293.062 515.016 290.031 515.016 286.469C515.016 283.562 514.891 280.922 514.641 278.547C514.422 276.172 514.016 274.156 513.422 272.5C512.828 270.844 512.047 269.562 511.078 268.656C510.109 267.75 508.875 267.297 507.375 267.297C506.156 267.297 504.969 267.453 503.812 267.766C502.688 268.047 501.625 268.453 500.625 268.984C499.656 269.484 498.766 270.109 497.953 270.859C497.172 271.578 496.5 272.359 495.938 273.203V304.141Z" fill="black"/>
</svg>
