<svg width="116" height="116" viewBox="0 0 116 116" fill="none" xmlns="http://www.w3.org/2000/svg">
<path d="M26.4275 23.7677C27.2594 23.7109 27.9498 23.5123 28.4988 23.1718C29.0478 22.8313 29.4859 22.2865 29.8131 21.5373C30.1403 20.7882 30.3705 19.8064 30.5036 18.5919C30.6422 17.3661 30.7115 15.8338 30.7115 13.995V5.4652C30.046 5.71491 29.4055 6.11218 28.79 6.65699C28.1744 7.20181 27.6115 7.87716 27.1013 8.68304C26.5967 9.48891 26.1558 10.4083 25.7787 11.4412C25.4016 12.4741 25.1215 13.6034 24.9385 14.8293H24.0651C24.0651 14.3866 24.0679 13.8645 24.0734 13.2629C24.0845 12.65 24.0956 12.003 24.1067 11.322C24.1233 10.6296 24.1428 9.92023 24.1649 9.1938C24.1927 8.45603 24.2204 7.74095 24.2481 7.04858C24.2814 6.34486 24.3174 5.68086 24.3563 5.05659C24.3951 4.43232 24.4394 3.87615 24.4894 3.38809H45.5848C45.6347 3.87615 45.6791 4.43232 45.7179 5.05659C45.7567 5.68086 45.79 6.34486 45.8177 7.04858C45.851 7.74095 45.8787 8.45603 45.9009 9.1938C45.9286 9.92023 45.948 10.6296 45.9591 11.322C45.9758 12.003 45.9869 12.65 45.9924 13.2629C46.0035 13.8645 46.009 14.3866 46.009 14.8293H45.1356C44.936 13.6829 44.6365 12.5989 44.2372 11.5774C43.8379 10.5445 43.3777 9.61944 42.8564 8.80221C42.3406 7.97364 41.7805 7.27559 41.1761 6.70807C40.5771 6.1292 39.9727 5.71491 39.3626 5.4652V14.5398C39.3737 16.2651 39.4514 17.7066 39.5956 18.8643C39.7397 20.0221 39.9754 20.9585 40.3026 21.6735C40.6298 22.3773 41.0624 22.888 41.6003 23.2058C42.1438 23.5236 42.8203 23.7109 43.63 23.7677V25.3681H26.4275V23.7677Z" fill="#E0D8CA"/>
<path d="M47.5979 23.7677C48.097 23.7336 48.5323 23.6485 48.9038 23.5123C49.2754 23.3761 49.5943 23.1604 49.8605 22.8653C50.1266 22.5702 50.3457 22.1786 50.5176 21.6906C50.6895 21.2025 50.8254 20.5839 50.9252 19.8348C51.0306 19.0743 51.1027 18.1663 51.1415 17.1107C51.1803 16.0438 51.1997 14.8009 51.1997 13.3821C51.1997 11.2255 51.1276 9.47756 50.9834 8.13822C50.8393 6.79887 50.6119 5.76031 50.3013 5.02254C49.9908 4.27342 49.5915 3.76832 49.1035 3.50727C48.621 3.24621 48.036 3.11568 47.3483 3.11568V1.5323L58.5116 0V10.0451C59.0107 9.59106 59.5209 9.16543 60.0422 8.76816C60.569 8.3709 61.1041 8.02471 61.6476 7.7296C62.1966 7.43449 62.754 7.20181 63.3196 7.03156C63.8853 6.8613 64.4648 6.77617 65.0582 6.77617C65.3632 6.77617 65.6737 6.79887 65.9898 6.84427C66.3059 6.88968 66.6137 7.00318 66.9132 7.18479C67.2182 7.35504 67.5038 7.6161 67.77 7.96796C68.0361 8.30847 68.2663 8.78519 68.4604 9.39811C68.66 9.99968 68.8181 10.7545 68.9345 11.6625C69.051 12.5705 69.1092 13.6658 69.1092 14.9484C69.1092 15.3798 69.1009 15.8224 69.0843 16.2764C69.0732 16.7191 69.0676 17.2072 69.0676 17.7406C69.0676 18.4103 69.0732 19.0232 69.0843 19.5794C69.1009 20.1356 69.1397 20.6407 69.2007 21.0947C69.2617 21.5373 69.3532 21.9289 69.4752 22.2694C69.6028 22.5986 69.7775 22.8767 69.9993 23.1037C70.2267 23.3193 70.5095 23.4839 70.8478 23.5974C71.186 23.7109 71.5992 23.7677 72.0872 23.7677V25.3681H60.4747V24.0741C60.6522 23.8358 60.8019 23.5236 60.9239 23.1377C61.0459 22.7405 61.143 22.2581 61.2151 21.6906C61.2927 21.123 61.3482 20.459 61.3814 19.6986C61.4147 18.9267 61.4313 18.0471 61.4313 17.0596C61.4313 15.7997 61.387 14.7952 61.2982 14.0461C61.2151 13.297 61.0986 12.7294 60.9489 12.3435C60.7991 11.9463 60.6217 11.6909 60.4165 11.5774C60.2169 11.4639 60.0006 11.4071 59.7677 11.4071C59.5736 11.4071 59.3684 11.4525 59.1521 11.5433C58.9414 11.6228 58.7279 11.7363 58.5116 11.8838V17.3661C58.5116 18.3536 58.5282 19.2162 58.5615 19.954C58.5948 20.6804 58.6475 21.3103 58.7195 21.8438C58.7972 22.3773 58.897 22.8256 59.019 23.1888C59.141 23.5407 59.2907 23.8358 59.4682 24.0741V25.3681H47.5979V23.7677Z" fill="#E0D8CA"/>
<path d="M73.152 16.8894C73.152 15.743 73.2712 14.6987 73.5096 13.7567C73.7481 12.8032 74.0836 11.9519 74.5162 11.2028C74.9543 10.4537 75.4839 9.80105 76.105 9.24488C76.7261 8.68871 77.4165 8.22902 78.1763 7.86581C78.9416 7.5026 79.7679 7.23019 80.6551 7.04858C81.5424 6.86698 82.4741 6.77617 83.4501 6.77617C84.7533 6.77617 85.9346 6.96345 86.9938 7.33802C88.053 7.71258 88.9569 8.29712 89.7056 9.09165C90.4598 9.87482 91.042 10.885 91.4524 12.1222C91.8628 13.3594 92.068 14.8406 92.068 16.5659H81.2208C81.2596 17.8825 81.3678 18.9948 81.5452 19.9029C81.7282 20.8109 81.9889 21.5487 82.3271 22.1162C82.671 22.6724 83.0952 23.0753 83.5999 23.325C84.1045 23.5634 84.6979 23.6826 85.38 23.6826C85.807 23.6826 86.2396 23.6428 86.6777 23.5634C87.1213 23.4726 87.5511 23.342 87.967 23.1718C88.3829 22.9902 88.7739 22.7745 89.1399 22.5248C89.5059 22.2638 89.8248 21.963 90.0965 21.6225C90.3683 21.2706 90.5818 20.8847 90.737 20.4647C90.8979 20.0334 90.9783 19.5624 90.9783 19.0516H92.068C92.068 19.8915 91.9571 20.6463 91.7352 21.316C91.519 21.9857 91.2167 22.5872 90.8285 23.1207C90.4404 23.6428 89.9801 24.0968 89.4477 24.4828C88.9209 24.8573 88.3441 25.1638 87.7175 25.4021C87.0964 25.6518 86.442 25.8334 85.7543 25.947C85.0667 26.0718 84.3707 26.1342 83.6664 26.1342C82.0748 26.1342 80.6302 25.9753 79.3325 25.6575C78.0404 25.3397 76.9368 24.8176 76.0218 24.0912C75.1068 23.3647 74.3997 22.417 73.9006 21.2479C73.4015 20.0675 73.152 18.6146 73.152 16.8894ZM84.5814 14.659C84.5814 13.6261 84.5398 12.7465 84.4567 12.02C84.379 11.2823 84.2709 10.6807 84.1322 10.2153C83.9991 9.74997 83.8383 9.40946 83.6498 9.1938C83.4612 8.96679 83.2588 8.85329 83.0425 8.85329C82.8041 8.85329 82.5767 8.96679 82.3604 9.1938C82.1497 9.40946 81.9611 9.75565 81.7948 10.2324C81.6339 10.6977 81.5009 11.2993 81.3955 12.0371C81.2957 12.7635 81.2347 13.6375 81.2125 14.659H84.5814Z" fill="#E0D8CA"/>
<path d="M0 68.5984C0.831839 68.5417 1.52227 68.343 2.07128 68.0025C2.62029 67.662 3.0584 67.1172 3.38559 66.3681C3.71278 65.6189 3.94292 64.6371 4.07601 63.4226C4.21465 62.1968 4.28397 60.6645 4.28397 58.8257C4.28397 57.5885 4.24793 56.5046 4.17583 55.5739C4.10929 54.6431 4.00115 53.8486 3.85142 53.1903C3.70723 52.5206 3.51868 51.9701 3.28577 51.5388C3.0584 51.0961 2.78666 50.7499 2.47056 50.5002C2.15446 50.2505 1.79123 50.0746 1.38085 49.9724C0.970479 49.8703 0.510195 49.8192 0 49.8192V48.2188H13.9832V49.8192C13.7559 49.8192 13.5728 49.9327 13.4342 50.1597C13.3011 50.3867 13.1957 50.8124 13.1181 51.4366C13.046 52.0609 12.9961 52.9349 12.9684 54.0586C12.9462 55.1823 12.9351 56.6351 12.9351 58.4171H16.6118C16.6118 56.6351 16.598 55.1823 16.5702 54.0586C16.5425 52.9349 16.4898 52.0609 16.4122 51.4366C16.3401 50.8124 16.2347 50.3867 16.0961 50.1597C15.963 49.9327 15.7855 49.8192 15.5637 49.8192V48.2188H29.5303V49.8192C28.7706 49.8192 28.1189 49.9384 27.5755 50.1768C27.0376 50.4151 26.5967 50.8691 26.2529 51.5388C25.909 52.1971 25.6567 53.1108 25.4959 54.2799C25.3351 55.449 25.2546 56.9643 25.2546 58.8257C25.2546 60.6645 25.3212 62.1968 25.4543 63.4226C25.5929 64.6371 25.8258 65.6189 26.153 66.3681C26.4802 67.1172 26.9183 67.662 27.4673 68.0025C28.0164 68.343 28.704 68.5417 29.5303 68.5984V70.1988H15.5637V68.5984C15.6968 68.553 15.8216 68.3884 15.938 68.1047C16.0545 67.8096 16.1571 67.3499 16.2458 66.7256C16.3401 66.1013 16.4177 65.2898 16.4787 64.2909C16.5397 63.2808 16.5786 62.0436 16.5952 60.5794H12.9434C12.9601 62.0436 12.9989 63.2808 13.0599 64.2909C13.1209 65.2898 13.1957 66.1013 13.2845 66.7256C13.3788 67.3499 13.4841 67.8096 13.6006 68.1047C13.7226 68.3884 13.8501 68.553 13.9832 68.5984V70.1988H0V68.5984Z" fill="#E0D8CA"/>
<path d="M31.3021 61.2944C31.3021 59.6486 31.5406 58.2185 32.0175 57.004C32.5 55.7782 33.1793 54.768 34.0555 53.9735C34.9317 53.1676 35.9826 52.5717 37.2082 52.1858C38.4338 51.7885 39.7952 51.5899 41.2925 51.5899C42.7843 51.5899 44.1429 51.7885 45.3685 52.1858C46.5996 52.5717 47.6505 53.1676 48.5212 53.9735C49.3974 54.768 50.074 55.7782 50.5509 57.004C51.0333 58.2185 51.2746 59.6486 51.2746 61.2944C51.2746 62.9289 51.0333 64.3534 50.5509 65.5679C50.074 66.7823 49.3974 67.7925 48.5212 68.5984C47.6505 69.3929 46.5996 69.9832 45.3685 70.3691C44.1429 70.7663 42.7843 70.965 41.2925 70.965C39.7952 70.965 38.4338 70.7663 37.2082 70.3691C35.9826 69.9832 34.9317 69.3929 34.0555 68.5984C33.1793 67.7925 32.5 66.7823 32.0175 65.5679C31.5406 64.3534 31.3021 62.9289 31.3021 61.2944ZM39.5956 61.2944C39.5956 62.35 39.6344 63.3545 39.712 64.308C39.7897 65.2614 39.9006 66.1013 40.0447 66.8278C40.1945 67.5428 40.3719 68.116 40.5771 68.5473C40.7879 68.9673 41.0263 69.1773 41.2925 69.1773C41.5532 69.1773 41.7861 68.9673 41.9913 68.5473C42.202 68.116 42.3794 67.5428 42.5236 66.8278C42.6734 66.1013 42.787 65.2614 42.8647 64.308C42.9423 63.3545 42.9811 62.35 42.9811 61.2944C42.9811 60.2275 42.9423 59.2173 42.8647 58.2639C42.787 57.2991 42.6734 56.4535 42.5236 55.7271C42.3794 55.0007 42.202 54.4218 41.9913 53.9905C41.7861 53.5592 41.5532 53.3435 41.2925 53.3435C41.0263 53.3435 40.7879 53.5592 40.5771 53.9905C40.3719 54.4218 40.1945 55.0007 40.0447 55.7271C39.9006 56.4535 39.7897 57.2991 39.712 58.2639C39.6344 59.2173 39.5956 60.2275 39.5956 61.2944Z" fill="#E0D8CA"/>
<path d="M54.8515 64.8187C54.8515 64.4669 54.857 64.0696 54.8681 63.6269C54.8848 63.1729 54.9014 62.7132 54.918 62.2479C54.9347 61.7712 54.9485 61.3058 54.9596 60.8518C54.9763 60.3978 54.9846 59.9835 54.9846 59.6089C54.9846 59.03 54.9624 58.4512 54.918 57.8723C54.8792 57.2821 54.7877 56.7543 54.6435 56.2889C54.4993 55.8122 54.2831 55.4263 53.9947 55.1312C53.7119 54.8361 53.3292 54.6885 52.8468 54.6885C52.6748 54.6885 52.4891 54.7056 52.2894 54.7396V53.1392L62.5377 51.6069V61.6009C62.5377 62.4522 62.5599 63.1956 62.6042 63.8313C62.6541 64.4555 62.7401 64.9776 62.8621 65.3976C62.9897 65.8062 63.1616 66.1184 63.3778 66.334C63.5941 66.5383 63.8686 66.6405 64.2014 66.6405C64.3788 66.6405 64.5618 66.6121 64.7504 66.5553C64.9445 66.4872 65.1386 66.3908 65.3327 66.2659V59.694C65.3327 58.7066 65.2855 57.8837 65.1913 57.2253C65.1025 56.567 64.9805 56.0335 64.8252 55.6249C64.67 55.205 64.487 54.8872 64.2762 54.6715C64.071 54.4445 63.852 54.2686 63.6191 54.1437V52.8327L72.6445 51.3004V62.2309C72.6445 63.3432 72.6778 64.2909 72.7444 65.0741C72.8109 65.8573 72.9495 66.5043 73.1603 67.015C73.371 67.5144 73.6732 67.8947 74.067 68.1557C74.4663 68.4168 74.9959 68.5757 75.6558 68.6325L75.7057 70.2329C75.3286 70.2329 74.8933 70.2385 74.3997 70.2499C73.9117 70.2612 73.3987 70.2783 72.8608 70.301C72.3284 70.3237 71.785 70.3464 71.2304 70.3691C70.6814 70.3918 70.1518 70.4145 69.6416 70.4372C69.1369 70.4599 68.6711 70.4769 68.2441 70.4882C67.8171 70.4996 67.4622 70.5053 67.1793 70.5053C66.9353 70.5053 66.7163 70.4315 66.5222 70.2839C66.3336 70.1477 66.1645 69.9661 66.0148 69.7391C65.8706 69.5008 65.7486 69.234 65.6488 68.9389C65.5545 68.6325 65.4824 68.3147 65.4325 67.9855C64.9611 68.4509 64.4897 68.8651 64.0184 69.2284C63.5525 69.5916 63.0728 69.9037 62.5793 70.1648C62.0913 70.4258 61.5838 70.6245 61.057 70.7607C60.5302 70.8969 59.9756 70.965 59.3933 70.965C59.0994 70.965 58.7833 70.9479 58.445 70.9139C58.1068 70.8912 57.7685 70.8174 57.4302 70.6926C57.0975 70.579 56.773 70.3974 56.4569 70.1477C56.1464 69.8867 55.8719 69.5291 55.6334 69.0751C55.395 68.6098 55.2036 68.0366 55.0594 67.3555C54.9208 66.6632 54.8515 65.8176 54.8515 64.8187Z" fill="#E0D8CA"/>
<path d="M77.7936 71.1522C77.7326 70.8798 77.6744 70.4882 77.6189 69.9775C77.569 69.4667 77.5247 68.9332 77.4858 68.3771C77.4526 67.8209 77.4248 67.2874 77.4027 66.7767C77.3805 66.2546 77.3694 65.8573 77.3694 65.5849H78.3925C78.5423 66.0957 78.8279 66.561 79.2493 66.981C79.6708 67.4009 80.2004 67.7585 80.8382 68.0536C81.4759 68.3487 82.2079 68.5757 83.0342 68.7346C83.8605 68.8935 84.7506 68.973 85.7044 68.973C86.2534 68.973 86.686 68.8254 87.0021 68.5303C87.3182 68.2352 87.4762 67.8663 87.4762 67.4236C87.4762 67.0377 87.3764 66.7313 87.1768 66.5043C86.9827 66.2659 86.7165 66.0786 86.3782 65.9424C86.0399 65.7949 85.6462 65.687 85.197 65.6189C84.7478 65.5395 84.2681 65.4657 83.7579 65.3976C83.2533 65.3295 82.732 65.25 82.1941 65.1592C81.6617 65.0571 81.1404 64.9209 80.6302 64.7506C80.1255 64.569 79.6486 64.3363 79.1994 64.0526C78.7502 63.7575 78.3565 63.3829 78.0182 62.9289C77.6799 62.4635 77.411 61.9017 77.2113 61.2434C77.0172 60.5737 76.9202 59.7735 76.9202 58.8428C76.9202 57.9801 77.0034 57.2026 77.1697 56.5103C77.3361 55.8179 77.5718 55.205 77.8768 54.6715C78.1818 54.138 78.545 53.6783 78.9665 53.2924C79.3935 52.9065 79.8621 52.5887 80.3723 52.339C80.8881 52.0893 81.4398 51.9077 82.0277 51.7942C82.6155 51.6693 83.2228 51.6069 83.8494 51.6069C84.3263 51.6069 84.8143 51.6296 85.3134 51.675C85.8181 51.7091 86.3172 51.7601 86.8108 51.8282C87.3043 51.885 87.784 51.9474 88.2498 52.0155C88.7157 52.0836 89.151 52.1517 89.5558 52.2198C89.9607 52.2766 90.3267 52.3277 90.6539 52.3731C90.981 52.4071 91.25 52.4241 91.4607 52.4241C91.6604 52.4241 91.8683 52.4128 92.0846 52.3901C92.3009 52.356 92.5116 52.3049 92.7168 52.2368C92.9276 52.1687 93.1216 52.0836 93.2991 51.9815C93.4821 51.8793 93.6374 51.7488 93.7649 51.5899C93.8259 51.8623 93.8814 52.2312 93.9313 52.6965C93.9868 53.1506 94.0311 53.6329 94.0644 54.1437C94.1032 54.6431 94.1337 55.1255 94.1559 55.5909C94.1781 56.0562 94.1892 56.4365 94.1892 56.7316H93.191C93.0801 56.357 92.8222 55.9711 92.4174 55.5739C92.0181 55.1652 91.5079 54.802 90.8868 54.4842C90.2657 54.1551 89.5558 53.8883 88.7573 53.684C87.9642 53.4684 87.1213 53.3605 86.2285 53.3605C86.1342 53.3605 86.0122 53.3776 85.8625 53.4116C85.7183 53.4343 85.5769 53.4967 85.4382 53.5989C85.3051 53.6897 85.1887 53.8316 85.0889 54.0245C84.989 54.2061 84.9391 54.4502 84.9391 54.7566C84.9391 55.1312 85.0334 55.4377 85.2219 55.676C85.4105 55.9144 85.6684 56.113 85.9956 56.2719C86.3227 56.4308 86.7026 56.567 87.1352 56.6805C87.5677 56.7827 88.028 56.8905 88.516 57.004C89.004 57.1062 89.5059 57.231 90.0217 57.3786C90.5374 57.5148 91.0393 57.6964 91.5273 57.9234C92.0153 58.139 92.4756 58.4114 92.9081 58.7406C93.3407 59.0698 93.7206 59.4841 94.0478 59.9835C94.375 60.4715 94.6328 61.0618 94.8214 61.7541C95.0099 62.4352 95.1042 63.2354 95.1042 64.1547C95.1042 65.1422 94.9406 66.0503 94.6134 66.8788C94.2918 67.7074 93.8398 68.4282 93.2575 69.0411C92.6752 69.6426 91.9848 70.1137 91.1862 70.4542C90.3877 70.7947 89.5142 70.965 88.5659 70.965C87.7896 70.965 87.0215 70.9252 86.2617 70.8458C85.5075 70.7663 84.77 70.6755 84.0491 70.5734C83.3281 70.4712 82.6266 70.3804 81.9445 70.301C81.2624 70.2215 80.6108 70.1818 79.9897 70.1818C79.7956 70.1818 79.5932 70.1988 79.3824 70.2329C79.1772 70.2669 78.9776 70.3237 78.7835 70.4031C78.5894 70.4826 78.4064 70.579 78.2345 70.6926C78.0626 70.8174 77.9156 70.9706 77.7936 71.1522Z" fill="#E0D8CA"/>
<path d="M97.084 61.7201C97.084 60.5737 97.2032 59.5295 97.4417 58.5874C97.6801 57.6339 98.0156 56.7827 98.4482 56.0335C98.8863 55.2844 99.4159 54.6318 100.037 54.0756C100.658 53.5194 101.349 53.0597 102.108 52.6965C102.874 52.3333 103.7 52.0609 104.587 51.8793C105.474 51.6977 106.406 51.6069 107.382 51.6069C108.685 51.6069 109.867 51.7942 110.926 52.1687C111.985 52.5433 112.889 53.1279 113.638 53.9224C114.392 54.7056 114.974 55.7157 115.384 56.9529C115.795 58.1901 116 59.6713 116 61.3966H105.153C105.192 62.7132 105.3 63.8256 105.477 64.7336C105.66 65.6416 105.921 66.3794 106.259 66.9469C106.603 67.5031 107.027 67.906 107.532 68.1557C108.037 68.3941 108.63 68.5133 109.312 68.5133C109.739 68.5133 110.172 68.4736 110.61 68.3941C111.053 68.3033 111.483 68.1728 111.899 68.0025C112.315 67.8209 112.706 67.6053 113.072 67.3555C113.438 67.0945 113.757 66.7937 114.029 66.4532C114.3 66.1013 114.514 65.7154 114.669 65.2955C114.83 64.8641 114.91 64.3931 114.91 63.8823H116C116 64.7223 115.889 65.4771 115.667 66.1467C115.451 66.8164 115.149 67.418 114.761 67.9514C114.372 68.4736 113.912 68.9276 113.38 69.3135C112.853 69.688 112.276 69.9945 111.649 70.2329C111.028 70.4826 110.374 70.6642 109.686 70.7777C108.999 70.9025 108.303 70.965 107.598 70.965C106.007 70.965 104.562 70.8061 103.265 70.4882C101.972 70.1704 100.869 69.6483 99.9538 68.9219C99.0388 68.1955 98.3317 67.2477 97.8326 66.0786C97.3335 64.8982 97.084 63.4453 97.084 61.7201ZM108.513 59.4897C108.513 58.4569 108.472 57.5772 108.389 56.8508C108.311 56.113 108.203 55.5114 108.064 55.0461C107.931 54.5807 107.77 54.2402 107.582 54.0245C107.393 53.7975 107.191 53.684 106.975 53.684C106.736 53.684 106.509 53.7975 106.292 54.0245C106.082 54.2402 105.893 54.5864 105.727 55.0631C105.566 55.5285 105.433 56.13 105.328 56.8678C105.228 57.5942 105.167 58.4682 105.144 59.4897H108.513Z" fill="#E0D8CA"/>
<path d="M16.7865 103.929C16.7865 102.147 17.0222 100.529 17.4936 99.0766C17.9705 97.6237 18.6443 96.3809 19.515 95.348C20.3912 94.3151 21.4476 93.5206 22.6843 92.9644C23.9209 92.3969 25.3018 92.1131 26.8268 92.1131C27.642 92.1131 28.4129 92.1812 29.1393 92.3174C29.8658 92.4536 30.5424 92.6012 31.169 92.7601C31.7957 92.919 32.3696 93.0666 32.8909 93.2028C33.4178 93.339 33.8919 93.4071 34.3134 93.4071C34.4132 93.4071 34.5241 93.373 34.6461 93.3049C34.7737 93.2368 34.8984 93.146 35.0204 93.0325C35.1424 92.9077 35.2561 92.7601 35.3615 92.5899C35.4669 92.4196 35.55 92.2266 35.611 92.011H37.4411C37.6075 92.6012 37.76 93.3106 37.8986 94.1392C38.0372 94.9564 38.1537 95.8077 38.248 96.693C38.3478 97.5783 38.4254 98.458 38.4809 99.332C38.5363 100.195 38.5641 100.966 38.5641 101.647H37.3163C37.2109 100.864 37.0446 100.155 36.8172 99.5193C36.5954 98.8723 36.3292 98.2991 36.0186 97.7997C35.7081 97.3003 35.367 96.8633 34.9955 96.4887C34.6239 96.1141 34.2385 95.8077 33.8392 95.5693C33.4455 95.331 33.049 95.155 32.6497 95.0415C32.2504 94.9167 31.8705 94.8543 31.5101 94.8543C30.9056 94.8543 30.3261 95.0132 29.7715 95.331C29.2225 95.6488 28.7373 96.1766 28.3158 96.9143C27.8943 97.6521 27.5561 98.6283 27.301 99.8427C27.0514 101.046 26.9266 102.538 26.9266 104.32C26.9266 105.83 27.0625 107.147 27.3342 108.27C27.6115 109.394 27.9775 110.33 28.4323 111.08C28.8926 111.817 29.4194 112.374 30.0128 112.748C30.6061 113.111 31.2245 113.293 31.8678 113.293C32.2615 113.293 32.6663 113.225 33.0823 113.089C33.4982 112.952 33.903 112.748 34.2967 112.476C34.696 112.203 35.0731 111.863 35.428 111.454C35.7885 111.034 36.1074 110.54 36.3847 109.973C36.6619 109.405 36.8893 108.764 37.0668 108.049C37.2498 107.323 37.3635 106.522 37.4078 105.648H38.6473C38.6473 107.238 38.4448 108.673 38.04 109.956C37.6352 111.227 37.0307 112.311 36.2266 113.208C35.428 114.104 34.4326 114.791 33.2403 115.268C32.0535 115.756 30.6755 116 29.1061 116C27.8805 116 26.7242 115.921 25.6373 115.762C24.5559 115.603 23.5577 115.342 22.6427 114.978C21.7332 114.615 20.9152 114.133 20.1887 113.531C19.4678 112.918 18.855 112.169 18.3504 111.284C17.8457 110.387 17.4575 109.332 17.1858 108.117C16.9196 106.903 16.7865 105.507 16.7865 103.929Z" fill="#E0D8CA"/>
<path d="M40.2278 113.429C40.7269 113.395 41.1622 113.321 41.5337 113.208C41.9053 113.083 42.2242 112.884 42.4904 112.612C42.7565 112.328 42.9756 111.954 43.1475 111.488C43.3194 111.012 43.4553 110.393 43.5551 109.632C43.6605 108.872 43.7326 107.953 43.7714 106.874C43.8102 105.796 43.8296 104.519 43.8296 103.044C43.8296 101.602 43.8019 100.348 43.7464 99.2809C43.691 98.214 43.5995 97.3003 43.4719 96.5398C43.3499 95.7793 43.1891 95.155 42.9895 94.667C42.7954 94.1789 42.5541 93.7987 42.2658 93.5263C41.9829 93.2425 41.6502 93.0495 41.2676 92.9474C40.8905 92.8339 40.4607 92.7771 39.9782 92.7771V91.1938L51.1415 89.6615V107.028C51.1415 108.14 51.1914 109.088 51.2912 109.871C51.3966 110.654 51.5768 111.301 51.8319 111.812C52.087 112.311 52.4308 112.691 52.8634 112.952C53.296 113.213 53.845 113.372 54.5104 113.429V115.03H40.2278V113.429Z" fill="#E0D8CA"/>
<path d="M57.2721 109.649C57.2721 109.298 57.2777 108.9 57.2888 108.458C57.3054 108.004 57.3221 107.544 57.3387 107.079C57.3553 106.602 57.3692 106.137 57.3803 105.683C57.3969 105.228 57.4052 104.814 57.4052 104.44C57.4052 103.861 57.3831 103.282 57.3387 102.703C57.2999 102.113 57.2084 101.585 57.0642 101.12C56.92 100.643 56.7037 100.257 56.4153 99.9619C56.1325 99.6668 55.7499 99.5193 55.2674 99.5193C55.0955 99.5193 54.9097 99.5363 54.7101 99.5703V97.9699L64.9583 96.4376V106.432C64.9583 107.283 64.9805 108.026 65.0249 108.662C65.0748 109.286 65.1608 109.808 65.2828 110.228C65.4103 110.637 65.5822 110.949 65.7985 111.165C66.0148 111.369 66.2893 111.471 66.622 111.471C66.7995 111.471 66.9825 111.443 67.171 111.386C67.3651 111.318 67.5592 111.221 67.7533 111.097V104.525C67.7533 103.537 67.7062 102.714 67.6119 102.056C67.5232 101.398 67.4012 100.864 67.2459 100.456C67.0906 100.036 66.9076 99.7179 66.6969 99.5022C66.4917 99.2752 66.2726 99.0993 66.0397 98.9744V97.6635L75.0652 96.1312V107.062C75.0652 108.174 75.0985 109.122 75.165 109.905C75.2316 110.688 75.3702 111.335 75.5809 111.846C75.7917 112.345 76.0939 112.725 76.4876 112.986C76.8869 113.248 77.4165 113.406 78.0764 113.463L78.1264 115.064C77.7493 115.064 77.3139 115.069 76.8204 115.081C76.3324 115.092 75.8194 115.109 75.2815 115.132C74.7491 115.154 74.2056 115.177 73.6511 115.2C73.102 115.222 72.5724 115.245 72.0622 115.268C71.5576 115.291 71.0918 115.308 70.6648 115.319C70.2377 115.33 69.8828 115.336 69.6 115.336C69.356 115.336 69.1369 115.262 68.9428 115.115C68.7543 114.978 68.5852 114.797 68.4354 114.57C68.2912 114.331 68.1692 114.065 68.0694 113.77C67.9751 113.463 67.903 113.145 67.8531 112.816C67.3818 113.282 66.9104 113.696 66.439 114.059C65.9732 114.422 65.4935 114.734 64.9999 114.995C64.5119 115.257 64.0045 115.455 63.4777 115.591C62.9508 115.728 62.3963 115.796 61.814 115.796C61.5201 115.796 61.204 115.779 60.8657 115.745C60.5274 115.722 60.1891 115.648 59.8508 115.523C59.5181 115.41 59.1937 115.228 58.8776 114.978C58.567 114.717 58.2925 114.36 58.0541 113.906C57.8156 113.44 57.6243 112.867 57.4801 112.186C57.3415 111.494 57.2721 110.648 57.2721 109.649Z" fill="#E0D8CA"/>
<path d="M80.1477 114.57C80.2032 114.343 80.2503 114.087 80.2891 113.804C80.328 113.52 80.3612 113.174 80.389 112.765C80.4167 112.345 80.4389 111.857 80.4555 111.301C80.4777 110.733 80.4916 110.058 80.4971 109.275C80.5082 108.492 80.5137 107.589 80.5137 106.568C80.5193 105.546 80.5221 104.372 80.5221 103.044C80.5221 100.887 80.45 99.139 80.3058 97.7997C80.1616 96.4603 79.9342 95.4218 79.6237 94.684C79.3131 93.9349 78.9138 93.4298 78.4258 93.1687C77.9434 92.9077 77.3583 92.7771 76.6706 92.7771V91.1938L87.8339 89.6615V99.0255C88.0668 98.6623 88.3413 98.3275 88.6574 98.021C88.9735 97.7032 89.3423 97.4308 89.7638 97.2038C90.1853 96.9654 90.6622 96.7781 91.1946 96.6419C91.7325 96.5057 92.3369 96.4376 93.008 96.4376C93.9784 96.4376 94.8602 96.6533 95.6532 97.0846C96.4518 97.5159 97.1339 98.1402 97.6995 98.9574C98.2652 99.7746 98.7005 100.768 99.0055 101.937C99.3161 103.106 99.4714 104.428 99.4714 105.904C99.4714 107.55 99.3078 108.991 98.9806 110.228C98.6534 111.466 98.182 112.498 97.5664 113.327C96.9509 114.144 96.1995 114.757 95.3122 115.166C94.4249 115.586 93.4239 115.796 92.3092 115.796C91.5217 115.796 90.8008 115.733 90.1464 115.608C89.4921 115.484 88.8654 115.342 88.2665 115.183C87.6676 115.035 87.0742 114.899 86.4863 114.774C85.9041 114.649 85.2885 114.587 84.6397 114.587C83.7413 114.587 82.9843 114.644 82.3687 114.757C81.7532 114.859 81.2458 115.052 80.8465 115.336L80.1477 114.57ZM87.8339 112.901C88.1167 113.128 88.4023 113.304 88.6907 113.429C88.9846 113.554 89.2896 113.616 89.6057 113.616C89.9163 113.616 90.1742 113.492 90.3794 113.242C90.5901 112.981 90.7565 112.567 90.8785 111.999C91.006 111.431 91.0947 110.694 91.1446 109.786C91.1946 108.878 91.2195 107.777 91.2195 106.483C91.2195 105.427 91.1973 104.468 91.153 103.605C91.1141 102.743 91.042 102.011 90.9367 101.409C90.8313 100.808 90.6927 100.342 90.5208 100.013C90.3488 99.6838 90.1298 99.5193 89.8636 99.5193C89.6473 99.5193 89.4366 99.576 89.2314 99.6895C89.0318 99.7917 88.8432 99.9392 88.6658 100.132C88.4938 100.314 88.3358 100.541 88.1916 100.813C88.053 101.074 87.9337 101.358 87.8339 101.664V112.901Z" fill="#E0D8CA"/>
</svg>
