<svg width="300" height="48" viewBox="0 0 300 48" fill="none" xmlns="http://www.w3.org/2000/svg">
<path d="M23.288 11.504C23.288 8.94401 22.488 7.08801 20.888 5.936C19.32 4.752 17.352 4.16 14.984 4.16C14.344 4.16 13.688 4.17601 13.016 4.20801C12.344 4.20801 11.672 4.20801 11 4.20801C10.68 4.20801 10.36 4.30401 10.04 4.49601C9.72002 4.68801 9.56001 4.96 9.56001 5.312V18.944C10.264 19.456 11.128 19.76 12.152 19.856C13.176 19.952 14.088 20 14.888 20C17.64 20 19.72 19.264 21.128 17.792C22.568 16.32 23.288 14.224 23.288 11.504ZM28.568 11.36C28.568 13.44 28.168 15.136 27.368 16.448C26.6 17.76 25.56 18.784 24.248 19.52C22.936 20.256 21.448 20.768 19.784 21.056C18.152 21.312 16.472 21.44 14.744 21.44C13.88 21.44 13.016 21.392 12.152 21.296C11.288 21.2 10.44 21.088 9.60802 20.96V35.312C9.60802 35.792 9.81602 36.112 10.232 36.272C10.648 36.432 11.112 36.512 11.624 36.512C12.136 36.512 12.552 36.512 12.872 36.512C13.064 36.512 13.256 36.512 13.448 36.512C13.672 36.48 13.88 36.464 14.072 36.464C14.36 36.464 14.504 36.592 14.504 36.848C14.504 37.264 14.472 37.552 14.408 37.712C14.344 37.84 14.088 37.904 13.64 37.904C12.552 37.904 11.48 37.872 10.424 37.808C9.36802 37.744 8.31201 37.712 7.25601 37.712C6.16801 37.712 5.06402 37.76 3.94402 37.856C2.85602 37.92 1.76802 37.952 0.680016 37.952C0.360016 37.952 0.200012 37.744 0.200012 37.328C0.200012 37.136 0.232013 36.96 0.296013 36.8C0.360013 36.64 0.520016 36.56 0.776016 36.56C1.16002 36.56 1.54402 36.576 1.92802 36.608C2.31202 36.608 2.69602 36.608 3.08002 36.608C3.46402 36.608 3.80001 36.512 4.08801 36.32C4.40801 36.128 4.58401 35.824 4.61601 35.408C4.68001 34.832 4.69602 34.256 4.66402 33.68C4.66402 33.072 4.66402 32.48 4.66402 31.904C4.66402 30.752 4.66402 29.6 4.66402 28.448C4.66402 27.264 4.66402 26.096 4.66402 24.944V16.544C4.66402 14.656 4.64801 12.784 4.61601 10.928C4.61601 9.04001 4.61601 7.168 4.61601 5.312C4.61601 4.736 4.32801 4.40001 3.75201 4.30401C3.20801 4.17601 2.72801 4.11201 2.31201 4.11201C2.02401 4.11201 1.73601 4.128 1.44801 4.16C1.16001 4.16 0.888019 4.16 0.632019 4.16C0.408019 4.16 0.280016 4.06401 0.248016 3.87201C0.248016 3.64801 0.248016 3.472 0.248016 3.344C0.248016 3.216 0.280017 3.104 0.344017 3.008C0.408017 2.88 0.504019 2.816 0.632019 2.816C1.68802 2.816 2.74402 2.84801 3.80002 2.91201C4.85602 2.97601 5.92801 3.008 7.01601 3.008C8.68001 3.008 10.344 2.97601 12.008 2.91201C13.672 2.84801 15.336 2.816 17 2.816C18.344 2.816 19.688 2.96001 21.032 3.24801C22.408 3.53601 23.656 4.01601 24.776 4.68801C25.928 5.36001 26.84 6.24 27.512 7.328C28.216 8.416 28.568 9.76001 28.568 11.36Z" fill="black"/>
<path d="M59.0011 37.472C59.0011 37.632 58.9211 37.76 58.7611 37.856C58.6011 37.92 58.4411 37.952 58.2811 37.952C57.4811 37.952 56.6651 37.936 55.8331 37.904C55.0331 37.84 54.2171 37.808 53.3851 37.808C52.4571 37.808 51.5131 37.84 50.5531 37.904C49.6251 37.968 48.6971 38 47.7691 38C47.6091 38 47.4971 37.904 47.4331 37.712C47.4011 37.488 47.3851 37.312 47.3851 37.184C47.3851 36.96 47.4971 36.848 47.7211 36.848C48.0731 36.848 48.4091 36.864 48.7291 36.896C49.0811 36.896 49.4171 36.896 49.7371 36.896C50.1531 36.896 50.4731 36.768 50.6971 36.512C50.9531 36.224 51.0971 35.888 51.1291 35.504C51.1931 34.704 51.2091 33.904 51.1771 33.104C51.1771 32.304 51.1771 31.52 51.1771 30.752C51.1771 29.792 51.1771 28.848 51.1771 27.92C51.1771 26.96 51.1771 26 51.1771 25.04C51.1771 24.08 51.1771 23.12 51.1771 22.16C51.1771 21.2 51.1451 20.24 51.0811 19.28C51.0491 18.864 51.0011 18.464 50.9371 18.08C50.9051 17.664 50.8251 17.264 50.6971 16.88C50.3771 16.016 49.8491 15.36 49.1131 14.912C48.4091 14.432 47.5931 14.192 46.6651 14.192C45.5771 14.192 44.5051 14.48 43.4491 15.056C42.3931 15.6 41.5131 16.288 40.8091 17.12C40.0411 18.016 39.4811 18.8 39.1291 19.472C38.7771 20.144 38.5531 20.848 38.4571 21.584C38.3931 22.32 38.3611 23.28 38.3611 24.464V32.912C38.3611 33.264 38.3451 33.76 38.3131 34.4C38.3131 35.04 38.3931 35.616 38.5531 36.128C38.7451 36.64 39.1131 36.896 39.6571 36.896C39.9771 36.896 40.2811 36.88 40.5691 36.848C40.8571 36.816 41.1611 36.8 41.4811 36.8C41.7691 36.8 41.9131 36.96 41.9131 37.28C41.9131 37.44 41.8811 37.6 41.8171 37.76C41.7851 37.888 41.6731 37.952 41.4811 37.952C40.3931 37.952 39.2731 37.936 38.1211 37.904C37.0011 37.84 35.8811 37.808 34.7611 37.808C33.7371 37.808 32.6971 37.856 31.6411 37.952C31.5131 37.952 31.4011 37.968 31.3051 38C31.2091 38 31.0971 38 30.9691 38C30.8091 38 30.6811 37.92 30.5851 37.76C30.5211 37.568 30.4891 37.408 30.4891 37.28C30.4891 36.928 30.6651 36.752 31.0171 36.752C31.2091 36.752 31.4011 36.768 31.5931 36.8C31.7851 36.8 31.9931 36.8 32.2171 36.8C32.6651 36.8 33.1291 36.736 33.6091 36.608C34.1211 36.448 34.3931 36.08 34.4251 35.504C34.4891 34.448 34.5051 33.392 34.4731 32.336C34.4731 31.28 34.4731 30.24 34.4731 29.216C34.4731 27.232 34.4731 25.264 34.4731 23.312C34.5051 21.36 34.5211 19.408 34.5211 17.456C34.5211 15.408 34.5051 13.376 34.4731 11.36C34.4411 9.31201 34.4091 7.264 34.3771 5.216C34.3771 4.864 34.3131 4.48 34.1851 4.064C34.0571 3.616 33.7691 3.39201 33.3211 3.39201C32.8731 3.39201 32.4091 3.42401 31.9291 3.48801C31.4491 3.55201 30.9691 3.58401 30.4891 3.58401C30.2011 3.58401 30.0571 3.45601 30.0571 3.2C30.0571 2.912 30.2011 2.72001 30.4891 2.62401C31.1291 2.46401 31.7531 2.33601 32.3611 2.24001C33.0011 2.14401 33.6251 2.03201 34.2331 1.90401C34.7771 1.77601 35.4171 1.60001 36.1531 1.37601C36.9211 1.12001 37.5611 0.992004 38.0731 0.992004C38.2651 0.992004 38.3771 1.05601 38.4091 1.18401C38.4411 1.28 38.4571 1.408 38.4571 1.568C38.4571 4.192 38.4571 6.81601 38.4571 9.44001C38.4571 12.064 38.4251 14.688 38.3611 17.312C39.0651 16.576 39.9131 15.84 40.9051 15.104C41.9291 14.368 43.0171 13.76 44.1691 13.28C45.3211 12.768 46.4091 12.512 47.4331 12.512C49.5131 12.512 51.1451 12.816 52.3291 13.424C53.5131 14.032 54.3451 14.976 54.8251 16.256C55.3051 17.504 55.5451 19.136 55.5451 21.152C55.5451 23.552 55.5291 25.952 55.4971 28.352C55.4971 30.72 55.4971 33.104 55.4971 35.504C55.4971 36.016 55.6251 36.384 55.8811 36.608C56.1691 36.8 56.5691 36.896 57.0811 36.896C57.3051 36.896 57.5131 36.88 57.7051 36.848C57.9291 36.816 58.1531 36.8 58.3771 36.8C58.5371 36.8 58.6811 36.88 58.8091 37.04C58.9371 37.168 59.0011 37.312 59.0011 37.472Z" fill="black"/>
<path d="M82.0768 25.328C82.0768 23.952 81.9648 22.576 81.7408 21.2C81.5488 19.792 81.1648 18.496 80.5888 17.312C80.0448 16.128 79.2448 15.184 78.1888 14.48C77.1328 13.744 75.7568 13.376 74.0608 13.376C72.4608 13.376 71.1488 13.76 70.1248 14.528C69.1328 15.296 68.3488 16.288 67.7728 17.504C67.2288 18.72 66.8448 20.032 66.6208 21.44C66.4288 22.848 66.3328 24.176 66.3328 25.424C66.3328 26.8 66.4288 28.176 66.6208 29.552C66.8448 30.928 67.2448 32.176 67.8208 33.296C68.3968 34.384 69.2128 35.264 70.2688 35.936C71.3568 36.608 72.7488 36.944 74.4448 36.944C76.1088 36.944 77.4368 36.592 78.4288 35.888C79.4528 35.184 80.2208 34.256 80.7328 33.104C81.2768 31.952 81.6288 30.704 81.7888 29.36C81.9808 27.984 82.0768 26.64 82.0768 25.328ZM87.0208 25.472C87.0208 27.872 86.4448 30.032 85.2928 31.952C84.1728 33.872 82.6368 35.392 80.6848 36.512C78.7648 37.632 76.6048 38.192 74.2048 38.192C71.8688 38.192 69.7568 37.632 67.8688 36.512C65.9808 35.36 64.4768 33.84 63.3568 31.952C62.2368 30.032 61.6768 27.904 61.6768 25.568C61.6768 23.168 62.2208 20.96 63.3088 18.944C64.3968 16.896 65.8848 15.248 67.7728 14C69.6928 12.752 71.9008 12.128 74.3968 12.128C77.0848 12.128 79.3728 12.704 81.2608 13.856C83.1488 14.976 84.5728 16.544 85.5328 18.56C86.5248 20.544 87.0208 22.848 87.0208 25.472Z" fill="black"/>
<path d="M106.706 35.792C106.706 36.08 106.482 36.368 106.034 36.656C105.618 36.944 105.106 37.2 104.498 37.424C103.89 37.648 103.298 37.824 102.722 37.952C102.178 38.08 101.778 38.144 101.522 38.144C99.8584 38.144 98.5624 37.936 97.6344 37.52C96.7384 37.104 96.0984 36.416 95.7144 35.456C95.3624 34.496 95.1864 33.2 95.1864 31.568C95.1864 28.912 95.1864 26.256 95.1864 23.6C95.2184 20.912 95.2504 18.24 95.2824 15.584H91.8264C91.6024 15.584 91.4104 15.648 91.2504 15.776C91.1224 15.872 90.9784 15.92 90.8184 15.92C90.6584 15.92 90.5784 15.808 90.5784 15.584C90.5784 15.456 90.6584 15.2 90.8184 14.816C91.0104 14.432 91.1384 14.176 91.2024 14.048C91.2984 14.08 91.4424 14.096 91.6344 14.096H95.3784L95.4264 8.00001C96.1624 7.52001 96.8344 6.99201 97.4424 6.41601C98.0504 5.80801 98.6584 5.2 99.2664 4.592C99.3304 4.528 99.3944 4.48001 99.4584 4.44801C99.5224 4.38401 99.5864 4.35201 99.6504 4.35201C99.9384 4.35201 100.082 4.46401 100.082 4.68801L99.7944 14.048C100.818 14.048 101.826 14.032 102.818 14C103.842 13.968 104.85 13.952 105.842 13.952C106.258 13.952 106.466 14.192 106.466 14.672C106.466 15.28 106.194 15.584 105.65 15.584H99.7944C99.7944 18.016 99.7784 20.464 99.7464 22.928C99.7464 25.36 99.7464 27.808 99.7464 30.272V33.968C99.7464 34.768 100.082 35.328 100.754 35.648C101.426 35.936 102.082 36.08 102.722 36.08C103.618 36.08 104.498 35.936 105.362 35.648C105.458 35.584 105.602 35.52 105.794 35.456C105.986 35.392 106.13 35.36 106.226 35.36C106.546 35.36 106.706 35.504 106.706 35.792Z" fill="black"/>
<path d="M129.702 25.328C129.702 23.952 129.59 22.576 129.366 21.2C129.174 19.792 128.79 18.496 128.214 17.312C127.67 16.128 126.87 15.184 125.814 14.48C124.758 13.744 123.382 13.376 121.686 13.376C120.086 13.376 118.774 13.76 117.75 14.528C116.758 15.296 115.974 16.288 115.398 17.504C114.854 18.72 114.47 20.032 114.246 21.44C114.054 22.848 113.958 24.176 113.958 25.424C113.958 26.8 114.054 28.176 114.246 29.552C114.47 30.928 114.87 32.176 115.446 33.296C116.022 34.384 116.838 35.264 117.894 35.936C118.982 36.608 120.374 36.944 122.07 36.944C123.734 36.944 125.062 36.592 126.054 35.888C127.078 35.184 127.846 34.256 128.358 33.104C128.902 31.952 129.254 30.704 129.414 29.36C129.606 27.984 129.702 26.64 129.702 25.328ZM134.646 25.472C134.646 27.872 134.07 30.032 132.918 31.952C131.798 33.872 130.262 35.392 128.31 36.512C126.39 37.632 124.23 38.192 121.83 38.192C119.494 38.192 117.382 37.632 115.494 36.512C113.606 35.36 112.102 33.84 110.982 31.952C109.862 30.032 109.302 27.904 109.302 25.568C109.302 23.168 109.846 20.96 110.934 18.944C112.022 16.896 113.51 15.248 115.398 14C117.318 12.752 119.526 12.128 122.022 12.128C124.71 12.128 126.998 12.704 128.886 13.856C130.774 14.976 132.198 16.544 133.158 18.56C134.15 20.544 134.646 22.848 134.646 25.472Z" fill="black"/>
<path d="M156.683 39.536C156.683 38.256 156.315 37.344 155.579 36.8C154.875 36.224 154.011 35.856 152.987 35.696C151.963 35.504 150.971 35.36 150.011 35.264L144.635 34.736C143.931 35.504 143.403 36.272 143.051 37.04C142.731 37.776 142.571 38.672 142.571 39.728C142.571 41.264 142.939 42.368 143.675 43.04C144.443 43.744 145.403 44.192 146.555 44.384C147.707 44.576 148.875 44.672 150.059 44.672C151.211 44.672 152.283 44.512 153.275 44.192C154.299 43.872 155.115 43.328 155.723 42.56C156.363 41.824 156.683 40.816 156.683 39.536ZM154.331 20.336C154.331 19.344 154.219 18.288 153.995 17.168C153.771 16.048 153.323 15.088 152.651 14.288C152.011 13.488 151.067 13.088 149.819 13.088C148.411 13.088 147.323 13.456 146.555 14.192C145.787 14.896 145.259 15.808 144.971 16.928C144.715 18.016 144.587 19.152 144.587 20.336C144.587 21.584 144.699 22.768 144.923 23.888C145.179 24.976 145.675 25.872 146.411 26.576C147.179 27.28 148.315 27.632 149.819 27.632C150.747 27.632 151.499 27.392 152.075 26.912C152.683 26.432 153.147 25.824 153.467 25.088C153.787 24.32 154.011 23.52 154.139 22.688C154.267 21.856 154.331 21.072 154.331 20.336ZM162.875 12.464C162.875 13.136 162.731 13.6 162.443 13.856C162.187 14.08 161.835 14.208 161.387 14.24C160.971 14.24 160.523 14.24 160.043 14.24C159.339 14.24 158.619 14.24 157.883 14.24C157.179 14.208 156.459 14.176 155.723 14.144C156.747 14.944 157.499 15.904 157.979 17.024C158.491 18.144 158.747 19.344 158.747 20.624C158.747 22.192 158.299 23.584 157.403 24.8C156.539 25.984 155.419 26.912 154.043 27.584C152.667 28.256 151.243 28.592 149.771 28.592C149.259 28.592 148.763 28.576 148.283 28.544C147.803 28.48 147.307 28.432 146.795 28.4C146.379 28.784 145.899 29.2 145.355 29.648C144.843 30.096 144.587 30.64 144.587 31.28C144.587 31.792 144.827 32.176 145.307 32.432C145.819 32.656 146.379 32.816 146.987 32.912C147.595 33.008 148.075 33.072 148.427 33.104L154.523 33.536C155.611 33.632 156.667 33.872 157.691 34.256C158.747 34.608 159.627 35.168 160.331 35.936C161.035 36.672 161.387 37.68 161.387 38.96C161.387 40.304 160.987 41.424 160.187 42.32C159.419 43.216 158.411 43.936 157.163 44.48C155.947 45.024 154.683 45.408 153.371 45.632C152.059 45.856 150.875 45.968 149.819 45.968C148.987 45.968 147.947 45.92 146.699 45.824C145.451 45.76 144.219 45.568 143.003 45.248C141.787 44.928 140.763 44.416 139.931 43.712C139.131 43.04 138.731 42.112 138.731 40.928C138.731 40.064 138.939 39.248 139.355 38.48C139.771 37.744 140.283 37.056 140.891 36.416C141.531 35.776 142.155 35.216 142.763 34.736C142.411 34.576 141.931 34.336 141.323 34.016C140.747 33.664 140.459 33.264 140.459 32.816C140.459 32.272 140.747 31.664 141.323 30.992C141.931 30.32 142.587 29.68 143.291 29.072C143.995 28.432 144.539 27.936 144.923 27.584C143.291 26.816 142.075 25.84 141.275 24.656C140.507 23.44 140.123 21.936 140.123 20.144C140.123 18.48 140.587 17.056 141.515 15.872C142.475 14.656 143.675 13.728 145.115 13.088C146.587 12.416 148.075 12.08 149.579 12.08C150.123 12.08 150.667 12.128 151.211 12.224C151.755 12.288 152.283 12.4 152.795 12.56C153.051 12.624 153.323 12.72 153.611 12.848C153.931 12.944 154.219 13.008 154.475 13.04C154.699 13.072 154.907 13.088 155.099 13.088C155.323 13.088 155.547 13.088 155.771 13.088C156.923 13.088 158.027 13.008 159.083 12.848C160.139 12.656 161.083 12.112 161.915 11.216C162.107 11.024 162.267 10.928 162.395 10.928C162.651 10.928 162.795 11.152 162.827 11.6C162.859 12.016 162.875 12.304 162.875 12.464Z" fill="black"/>
<path d="M184.224 16.64C184.224 16.96 184.096 17.264 183.84 17.552C183.616 17.808 183.328 17.936 182.976 17.936C182.496 17.936 182.144 17.776 181.92 17.456C181.728 17.136 181.552 16.768 181.392 16.352C181.264 15.936 181.056 15.568 180.768 15.248C180.48 14.928 180 14.768 179.328 14.768C179.2 14.768 179.072 14.768 178.944 14.768C178.848 14.768 178.736 14.784 178.608 14.816C178.064 14.912 177.472 15.248 176.832 15.824C176.192 16.4 175.568 17.088 174.96 17.888C174.384 18.656 173.904 19.424 173.52 20.192C173.136 20.96 172.928 21.6 172.896 22.112C172.864 22.624 172.848 23.136 172.848 23.648C172.848 24.128 172.848 24.608 172.848 25.088C172.848 26.816 172.848 28.544 172.848 30.272C172.88 32 172.896 33.712 172.896 35.408C172.896 35.888 173.088 36.24 173.472 36.464C173.888 36.656 174.304 36.752 174.72 36.752C175.04 36.752 175.36 36.736 175.68 36.704C176 36.672 176.32 36.656 176.64 36.656C176.8 36.656 176.912 36.736 176.976 36.896C177.04 37.024 177.072 37.152 177.072 37.28C177.072 37.792 176.816 38.048 176.304 38.048C175.344 38.048 174.384 38.032 173.424 38C172.464 37.936 171.504 37.904 170.544 37.904C169.552 37.904 168.544 37.936 167.52 38C166.528 38.064 165.52 38.096 164.496 38.096C164.368 38.096 164.272 38 164.208 37.808C164.176 37.616 164.16 37.456 164.16 37.328C164.16 37.008 164.288 36.832 164.544 36.8C164.896 36.736 165.264 36.72 165.648 36.752C166.032 36.784 166.384 36.8 166.704 36.8C167.184 36.8 167.568 36.704 167.856 36.512C168.176 36.288 168.352 35.92 168.384 35.408C168.448 34.384 168.48 33.344 168.48 32.288C168.512 31.232 168.528 30.176 168.528 29.12V24.464C168.496 23.088 168.48 21.728 168.48 20.384C168.512 19.008 168.464 17.648 168.336 16.304C168.304 15.664 168.128 15.216 167.808 14.96C167.488 14.672 167.008 14.528 166.368 14.528C166.112 14.528 165.84 14.56 165.552 14.624C165.296 14.656 165.024 14.672 164.736 14.672C164.48 14.672 164.352 14.48 164.352 14.096C164.352 13.872 164.464 13.712 164.688 13.616C165.008 13.52 165.344 13.456 165.696 13.424C166.048 13.36 166.384 13.312 166.704 13.28C167.568 13.12 168.432 12.96 169.296 12.8C170.16 12.64 171.024 12.448 171.888 12.224C172.176 12.32 172.384 12.496 172.512 12.752C172.576 12.88 172.624 13.232 172.656 13.808C172.688 14.384 172.704 15.056 172.704 15.824C172.704 16.56 172.704 17.264 172.704 17.936C172.704 18.576 172.704 19.024 172.704 19.28C173.408 18.16 174.208 17.04 175.104 15.92C176 14.8 177.024 13.872 178.176 13.136C179.328 12.4 180.624 12.032 182.064 12.032C182.832 12.032 183.328 12.272 183.552 12.752C183.776 13.232 183.92 13.792 183.984 14.432C184.048 14.784 184.096 15.152 184.128 15.536C184.192 15.92 184.224 16.288 184.224 16.64Z" fill="black"/>
<path d="M202.048 32.384C201.92 30.944 201.84 29.504 201.808 28.064C201.808 26.592 201.792 25.12 201.76 23.648H201.088C200.096 23.648 198.992 23.808 197.776 24.128C196.592 24.416 195.456 24.864 194.368 25.472C193.28 26.08 192.384 26.848 191.68 27.776C191.008 28.672 190.672 29.712 190.672 30.896C190.672 32.432 191.104 33.6 191.968 34.4C192.832 35.168 194 35.552 195.472 35.552C196.176 35.552 196.944 35.392 197.776 35.072C198.608 34.72 199.408 34.304 200.176 33.824C200.944 33.344 201.568 32.864 202.048 32.384ZM210.448 35.456C210.448 35.584 210.432 35.68 210.4 35.744C210.08 36.448 209.536 36.992 208.768 37.376C208.032 37.728 207.296 37.904 206.56 37.904C205.216 37.904 204.24 37.52 203.632 36.752C203.056 35.952 202.592 34.976 202.24 33.824C201.024 34.944 199.68 35.888 198.208 36.656C196.736 37.392 195.152 37.76 193.456 37.76C192.272 37.76 191.152 37.536 190.096 37.088C189.072 36.608 188.24 35.92 187.6 35.024C186.96 34.128 186.64 33.04 186.64 31.76C186.64 30.416 186.976 29.264 187.648 28.304C188.352 27.312 189.232 26.48 190.288 25.808C191.376 25.104 192.528 24.544 193.744 24.128C194.992 23.68 196.16 23.344 197.248 23.12C197.984 22.96 198.736 22.816 199.504 22.688C200.272 22.56 201.024 22.432 201.76 22.304C201.76 21.408 201.712 20.368 201.616 19.184C201.552 18 201.312 17.024 200.896 16.256C200.48 15.52 199.92 14.864 199.216 14.288C198.512 13.712 197.728 13.424 196.864 13.424C195.392 13.424 194.24 13.808 193.408 14.576C192.576 15.344 191.984 16.432 191.632 17.84C191.6 18 191.568 18.176 191.536 18.368C191.536 18.528 191.52 18.688 191.488 18.848C191.456 19.04 191.328 19.216 191.104 19.376C190.912 19.504 190.704 19.568 190.48 19.568C189.872 19.568 189.312 19.424 188.8 19.136C188.32 18.848 188.08 18.368 188.08 17.696C188.08 17.312 188.144 16.976 188.272 16.688C188.688 15.696 189.36 14.88 190.288 14.24C191.216 13.568 192.24 13.056 193.36 12.704C194.512 12.352 195.584 12.176 196.576 12.176C198.304 12.176 199.872 12.496 201.28 13.136C202.688 13.776 203.808 14.72 204.64 15.968C205.504 17.184 205.936 18.72 205.936 20.576C205.936 22.656 205.92 24.752 205.888 26.864C205.888 28.976 205.952 31.088 206.08 33.2C206.112 33.904 206.256 34.528 206.512 35.072C206.768 35.584 207.296 35.84 208.096 35.84C208.512 35.84 208.944 35.744 209.392 35.552C209.872 35.328 210.176 35.216 210.304 35.216C210.4 35.216 210.448 35.296 210.448 35.456Z" fill="black"/>
<path d="M233.197 24.272C233.197 23.184 233.133 22.048 233.005 20.864C232.877 19.648 232.605 18.512 232.189 17.456C231.773 16.4 231.149 15.552 230.317 14.912C229.485 14.24 228.349 13.904 226.909 13.904C226.045 13.904 225.117 14.128 224.125 14.576C223.165 14.992 222.317 15.568 221.581 16.304C220.877 17.04 220.477 17.888 220.381 18.848C220.317 19.84 220.285 20.848 220.285 21.872C220.285 22.896 220.285 23.92 220.285 24.944C220.285 25.84 220.285 26.752 220.285 27.68C220.317 28.576 220.349 29.488 220.381 30.416C220.477 32.048 221.005 33.44 221.965 34.592C222.925 35.712 224.285 36.272 226.045 36.272C227.709 36.272 229.021 35.904 229.981 35.168C230.941 34.4 231.645 33.408 232.093 32.192C232.573 30.976 232.877 29.68 233.005 28.304C233.133 26.896 233.197 25.552 233.197 24.272ZM238.141 24.32C238.141 26.816 237.693 29.072 236.797 31.088C235.901 33.104 234.557 34.704 232.765 35.888C231.005 37.04 228.797 37.616 226.141 37.616C225.117 37.616 224.061 37.36 222.973 36.848C221.917 36.304 221.021 35.68 220.285 34.976V45.2C220.285 45.648 220.461 45.904 220.813 45.968C221.197 46.032 221.549 46.064 221.869 46.064C222.157 46.064 222.445 46.048 222.733 46.016C223.021 45.984 223.309 45.968 223.597 45.968C224.013 45.968 224.221 46.176 224.221 46.592C224.221 47.072 223.981 47.312 223.501 47.312C222.509 47.312 221.517 47.28 220.525 47.216C219.533 47.152 218.541 47.12 217.549 47.12C216.717 47.12 215.885 47.152 215.053 47.216C214.253 47.28 213.437 47.312 212.605 47.312C212.381 47.312 212.237 47.232 212.173 47.072C212.141 46.912 212.125 46.768 212.125 46.64C212.125 46.192 212.349 45.968 212.797 45.968C213.053 45.968 213.309 45.968 213.565 45.968C213.821 46 214.077 46.016 214.333 46.016C214.557 46.016 214.877 45.984 215.293 45.92C215.741 45.856 215.965 45.664 215.965 45.344C215.965 42.016 215.965 38.672 215.965 35.312C215.997 31.952 216.013 28.608 216.013 25.28C216.013 23.776 215.997 22.288 215.965 20.816C215.965 19.344 215.949 17.872 215.917 16.4C215.885 15.696 215.757 15.216 215.533 14.96C215.309 14.672 214.829 14.528 214.093 14.528C213.773 14.528 213.453 14.576 213.133 14.672C212.813 14.736 212.493 14.768 212.173 14.768C211.821 14.768 211.645 14.608 211.645 14.288C211.645 14 211.789 13.808 212.077 13.712C212.141 13.68 212.429 13.616 212.941 13.52C213.453 13.424 214.061 13.312 214.765 13.184C215.501 13.024 216.221 12.88 216.925 12.752C217.629 12.624 218.221 12.512 218.701 12.416C219.181 12.32 219.437 12.272 219.469 12.272C219.725 12.272 219.901 12.432 219.997 12.752C220.061 12.944 220.093 13.296 220.093 13.808C220.125 14.288 220.141 14.784 220.141 15.296C220.141 15.776 220.141 16.144 220.141 16.4C221.037 15.216 222.173 14.24 223.549 13.472C224.957 12.672 226.413 12.272 227.917 12.272C230.125 12.272 231.981 12.864 233.485 14.048C235.021 15.2 236.173 16.704 236.941 18.56C237.741 20.384 238.141 22.304 238.141 24.32Z" fill="black"/>
<path d="M270.032 37.472C270.032 37.632 269.952 37.76 269.792 37.856C269.632 37.92 269.472 37.952 269.312 37.952C268.512 37.952 267.696 37.936 266.864 37.904C266.064 37.84 265.248 37.808 264.416 37.808C263.488 37.808 262.544 37.84 261.584 37.904C260.656 37.968 259.728 38 258.8 38C258.64 38 258.528 37.904 258.464 37.712C258.432 37.488 258.416 37.312 258.416 37.184C258.416 36.96 258.528 36.848 258.752 36.848C259.104 36.848 259.44 36.864 259.76 36.896C260.112 36.896 260.448 36.896 260.768 36.896C261.184 36.896 261.504 36.768 261.728 36.512C261.984 36.224 262.128 35.888 262.16 35.504C262.224 34.704 262.24 33.904 262.208 33.104C262.208 32.304 262.208 31.52 262.208 30.752C262.208 29.792 262.208 28.848 262.208 27.92C262.208 26.96 262.208 26 262.208 25.04C262.208 24.08 262.208 23.12 262.208 22.16C262.208 21.2 262.176 20.24 262.112 19.28C262.08 18.864 262.032 18.464 261.968 18.08C261.936 17.664 261.856 17.264 261.728 16.88C261.408 16.016 260.88 15.36 260.144 14.912C259.44 14.432 258.624 14.192 257.696 14.192C256.608 14.192 255.536 14.48 254.48 15.056C253.424 15.6 252.544 16.288 251.84 17.12C251.072 18.016 250.512 18.8 250.16 19.472C249.808 20.144 249.584 20.848 249.488 21.584C249.424 22.32 249.392 23.28 249.392 24.464V32.912C249.392 33.264 249.376 33.76 249.344 34.4C249.344 35.04 249.424 35.616 249.584 36.128C249.776 36.64 250.144 36.896 250.688 36.896C251.008 36.896 251.312 36.88 251.6 36.848C251.888 36.816 252.192 36.8 252.512 36.8C252.8 36.8 252.944 36.96 252.944 37.28C252.944 37.44 252.912 37.6 252.848 37.76C252.816 37.888 252.704 37.952 252.512 37.952C251.424 37.952 250.304 37.936 249.152 37.904C248.032 37.84 246.912 37.808 245.792 37.808C244.768 37.808 243.728 37.856 242.672 37.952C242.544 37.952 242.432 37.968 242.336 38C242.24 38 242.128 38 242 38C241.84 38 241.712 37.92 241.616 37.76C241.552 37.568 241.52 37.408 241.52 37.28C241.52 36.928 241.696 36.752 242.048 36.752C242.24 36.752 242.432 36.768 242.624 36.8C242.816 36.8 243.024 36.8 243.248 36.8C243.696 36.8 244.16 36.736 244.64 36.608C245.152 36.448 245.424 36.08 245.456 35.504C245.52 34.448 245.536 33.392 245.504 32.336C245.504 31.28 245.504 30.24 245.504 29.216C245.504 27.232 245.504 25.264 245.504 23.312C245.536 21.36 245.552 19.408 245.552 17.456C245.552 15.408 245.536 13.376 245.504 11.36C245.472 9.31201 245.44 7.264 245.408 5.216C245.408 4.864 245.344 4.48 245.216 4.064C245.088 3.616 244.8 3.39201 244.352 3.39201C243.904 3.39201 243.44 3.42401 242.96 3.48801C242.48 3.55201 242 3.58401 241.52 3.58401C241.232 3.58401 241.088 3.45601 241.088 3.2C241.088 2.912 241.232 2.72001 241.52 2.62401C242.16 2.46401 242.784 2.33601 243.392 2.24001C244.032 2.14401 244.656 2.03201 245.264 1.90401C245.808 1.77601 246.448 1.60001 247.184 1.37601C247.952 1.12001 248.592 0.992004 249.104 0.992004C249.296 0.992004 249.408 1.05601 249.44 1.18401C249.472 1.28 249.488 1.408 249.488 1.568C249.488 4.192 249.488 6.81601 249.488 9.44001C249.488 12.064 249.456 14.688 249.392 17.312C250.096 16.576 250.944 15.84 251.936 15.104C252.96 14.368 254.048 13.76 255.2 13.28C256.352 12.768 257.44 12.512 258.464 12.512C260.544 12.512 262.176 12.816 263.36 13.424C264.544 14.032 265.376 14.976 265.856 16.256C266.336 17.504 266.576 19.136 266.576 21.152C266.576 23.552 266.56 25.952 266.528 28.352C266.528 30.72 266.528 33.104 266.528 35.504C266.528 36.016 266.656 36.384 266.912 36.608C267.2 36.8 267.6 36.896 268.112 36.896C268.336 36.896 268.544 36.88 268.736 36.848C268.96 36.816 269.184 36.8 269.408 36.8C269.568 36.8 269.712 36.88 269.84 37.04C269.968 37.168 270.032 37.312 270.032 37.472Z" fill="black"/>
<path d="M299.396 12.704C299.396 13.024 299.284 13.2 299.06 13.232C298.836 13.264 298.532 13.28 298.148 13.28C297.796 13.28 297.428 13.36 297.044 13.52C296.692 13.68 296.372 14.048 296.084 14.624C294.516 17.696 293.076 20.832 291.764 24.032C290.452 27.232 289.012 30.368 287.444 33.44C286.516 35.296 285.588 37.152 284.66 39.008C283.764 40.896 282.756 42.72 281.636 44.48C281.028 45.44 280.308 46.208 279.476 46.784C278.644 47.36 277.652 47.648 276.5 47.648C275.54 47.648 274.66 47.44 273.86 47.024C273.092 46.608 272.708 45.856 272.708 44.768C272.708 44.064 272.964 43.472 273.476 42.992C274.02 42.512 274.628 42.272 275.3 42.272C275.588 42.272 275.876 42.32 276.164 42.416C275.972 42.8 275.876 43.168 275.876 43.52C275.876 44 276.052 44.368 276.404 44.624C276.788 44.912 277.188 45.056 277.604 45.056C278.244 45.056 278.82 44.864 279.332 44.48C279.876 44.128 280.308 43.696 280.628 43.184C281.204 42.32 281.684 41.36 282.068 40.304C282.484 39.248 282.692 38.208 282.692 37.184C282.692 36.736 282.66 36.288 282.596 35.84C282.532 35.392 282.436 34.96 282.308 34.544C282.116 33.872 281.892 33.216 281.636 32.576C281.38 31.904 281.124 31.248 280.868 30.608C280.452 29.584 280.036 28.576 279.62 27.584C279.236 26.592 278.82 25.6 278.372 24.608C277.764 23.168 277.156 21.728 276.548 20.288C275.972 18.816 275.332 17.392 274.628 16.016C274.532 15.856 274.436 15.696 274.34 15.536C274.276 15.376 274.18 15.216 274.052 15.056C273.892 14.8 273.684 14.592 273.428 14.432C273.204 14.24 272.916 14.144 272.564 14.144C272.34 14.144 272.1 14.16 271.844 14.192C271.588 14.224 271.332 14.24 271.076 14.24C270.916 14.24 270.788 14.176 270.692 14.048C270.596 13.888 270.548 13.744 270.548 13.616C270.548 13.36 270.692 13.2 270.98 13.136C271.3 13.04 271.62 12.976 271.94 12.944C272.292 12.912 272.628 12.88 272.948 12.848C273.652 12.72 274.356 12.592 275.06 12.464C275.764 12.336 276.468 12.24 277.172 12.176C277.268 12.144 277.364 12.128 277.46 12.128C277.556 12.128 277.652 12.128 277.748 12.128C278.068 12.128 278.276 12.224 278.372 12.416C278.5 12.608 278.628 12.832 278.756 13.088C279.492 14.688 280.164 16.336 280.772 18.032C281.38 19.696 281.988 21.36 282.596 23.024C283.236 24.592 283.844 26.176 284.42 27.776C284.996 29.376 285.588 30.976 286.196 32.576C286.42 32.16 286.74 31.472 287.156 30.512C287.604 29.52 288.1 28.4 288.644 27.152C289.22 25.872 289.796 24.544 290.372 23.168C290.948 21.792 291.476 20.48 291.956 19.232C292.468 17.984 292.868 16.912 293.156 16.016C293.476 15.088 293.636 14.448 293.636 14.096C293.636 13.68 293.428 13.44 293.012 13.376C292.596 13.28 292.132 13.248 291.62 13.28C291.108 13.312 290.724 13.328 290.468 13.328C290.34 13.328 290.228 13.264 290.132 13.136C290.036 13.008 289.988 12.88 289.988 12.752C289.988 12.432 290.148 12.272 290.468 12.272C290.82 12.24 291.092 12.224 291.284 12.224C291.828 12.224 292.388 12.24 292.964 12.272C293.54 12.272 294.1 12.272 294.644 12.272C295.38 12.272 296.1 12.256 296.804 12.224C297.54 12.192 298.26 12.176 298.964 12.176C299.124 12.176 299.236 12.24 299.3 12.368C299.364 12.464 299.396 12.576 299.396 12.704Z" fill="black"/>
</svg>
