<svg width="231" height="72" viewBox="0 0 231 72" fill="none" xmlns="http://www.w3.org/2000/svg">
<path d="M53.7475 1.05494C56.0933 2.75457 58.4098 4.92308 60.6969 7.56044C62.984 10.1392 64.1276 11.8388 64.1276 12.6593C64.1276 13.1282 63.8637 13.5092 63.3359 13.8022C62.1043 14.5641 60.6382 15.2088 58.9376 15.7363C57.5887 16.1465 56.4452 16.5861 55.5069 17.055L49.4372 20.3956C45.7426 22.6813 42.1066 24.6447 38.5293 26.2857C38.1775 26.7546 37.9429 27.1648 37.8256 27.5165L35.6264 33.1429L34.3069 36.3956C31.3747 43.8974 27.211 50.8132 21.8157 57.1429C16.4791 63.4725 10.2628 68.2491 3.16679 71.4725C2.46306 71.8242 1.99391 72 1.75933 72C1.46611 72 1.31949 71.8535 1.31949 71.5604C1.31949 71.3846 1.70068 70.9744 2.46306 70.3297C7.74105 65.641 12.2567 60.2784 16.0099 54.2418C19.7631 48.2051 22.5781 42.4908 24.4547 37.0989C26.3899 31.6484 27.3576 27.5165 27.3576 24.7033C27.3576 23.1209 26.7125 21.8315 25.4223 20.8352C24.1908 19.7802 22.6954 19.0183 20.936 18.5495C20.6428 18.4322 20.4962 18.2857 20.4962 18.1099C20.4962 17.641 21.3465 17.1722 23.0472 16.7033C24.7479 16.1758 26.3899 15.9121 27.9733 15.9121C30.2605 15.9121 32.6062 16.4689 35.0107 17.5824C37.4151 18.6374 39.0571 19.9267 39.9368 21.4506C43.3968 17.8169 46.0065 14.4469 47.7658 11.3407C48.5282 10.0513 48.9094 9.14286 48.9094 8.61539C48.9094 8.02931 48.2936 7.73626 47.0621 7.73626C45.0095 7.73626 42.6931 8 40.1127 8.52747C37.5324 9.05494 34.3069 9.87546 30.4364 10.989C27.1523 11.9267 23.575 13.3333 19.7045 15.2088C17.7106 16.1465 16.1272 16.8205 14.9543 17.2308C13.7814 17.641 12.6085 17.8462 11.4356 17.8462C10.38 17.8462 9.11919 17.4066 7.65308 16.5275C6.18697 15.5897 4.77951 14.3297 3.43069 12.7472C2.08187 11.1648 1.05559 9.4066 0.351861 7.47253C0.117284 6.82784 0 6.27106 0 5.8022C0 4.98168 0.234575 4.57143 0.70373 4.57143C0.938308 4.57143 1.43679 4.77656 2.19916 5.18681C2.96154 5.59707 3.66527 5.91941 4.31035 6.15385C6.01104 6.73993 8.21021 7.03297 10.9078 7.03297C13.195 7.03297 15.8633 6.82785 18.9128 6.41759C23.1352 5.89012 28.12 5.15751 33.8671 4.21978C39.6729 3.22345 43.5434 2.46154 45.4787 1.93407C45.9478 1.81685 46.4463 1.67033 46.9741 1.49451C47.5019 1.26008 47.9124 1.08425 48.2056 0.967033C49.7304 0.322345 50.8446 0 51.5484 0C51.9002 0 52.2521 0.117218 52.604 0.351651C52.9558 0.527473 53.337 0.761898 53.7475 1.05494Z" fill="#F2C479"/>
<path d="M107.231 29.1868C106.176 29.304 105.472 29.3626 105.12 29.3626C103.595 29.3626 102.246 29.0403 101.074 28.3956C99.9593 27.7509 98.6984 26.6081 97.291 24.967C96.4699 24.0293 95.8542 23.033 95.4436 21.978C95.0331 20.9231 94.8279 20.044 94.8279 19.3407C94.8279 18.8718 94.9745 18.6374 95.2677 18.6374C95.385 18.6374 95.7075 18.8132 96.2353 19.1648C97.115 19.8095 98.3172 20.2784 99.842 20.5714C101.367 20.8059 102.891 20.9231 104.416 20.9231C106.352 20.9231 108.169 20.8059 109.87 20.5714C111.629 20.2784 114.532 19.7509 118.579 18.989C120.338 18.696 122.068 18.2857 123.769 17.7583C125.47 17.2894 126.818 16.9377 127.815 16.7033C128.871 16.4689 129.868 16.3516 130.806 16.3516C132.096 16.3516 133.533 16.674 135.117 17.3187C136.7 17.9048 138.049 18.7253 139.163 19.7802C140.336 20.7766 140.922 21.8315 140.922 22.9451C140.922 24.3516 140.453 25.3187 139.515 25.8461C138.635 26.315 137.257 26.5495 135.38 26.5495C134.208 26.5495 133.328 26.5202 132.741 26.4615L129.399 26.3736C126.642 26.3736 123.417 26.6667 119.722 27.2528C116.086 27.7802 113.917 28.1026 113.213 28.2198C110.808 28.6886 108.815 29.011 107.231 29.1868ZM97.4669 56C96.7045 56.293 95.9421 56.4396 95.1798 56.4396C92.834 56.4396 90.1657 54.8278 87.1748 51.6044C86.0606 50.3736 85.2102 49.0256 84.6238 47.5604C84.0373 46.0366 83.7441 44.718 83.7441 43.6044C83.7441 43.0769 83.8027 42.696 83.92 42.4615C84.0373 42.1685 84.1839 42.022 84.3599 42.022C84.4772 42.022 84.7997 42.2564 85.3275 42.7253C85.8553 43.1941 86.4417 43.6337 87.0868 44.044C88.0251 44.63 89.374 45.1282 91.1333 45.5385C92.8926 45.9487 94.6226 46.1538 96.3233 46.1538C97.7308 46.1538 105.12 45.3626 118.491 43.7802C123.886 43.1355 128.05 42.6667 130.982 42.3736C133.914 42.0806 136.231 41.4652 137.931 40.5275C138.87 40.1758 139.486 40 139.779 40C141.128 40 143.004 40.4689 145.409 41.4066C147.813 42.3443 149.924 43.5458 151.742 45.011C153.56 46.4176 154.469 47.8535 154.469 49.3187C154.469 50.315 154.205 51.1648 153.677 51.8681C153.208 52.5128 152.123 52.8352 150.423 52.8352C148.663 52.8352 145.467 52.3956 140.834 51.5165C138.019 50.989 135.263 50.7253 132.566 50.7253C129.34 50.7253 124.15 51.1062 116.995 51.8681C111.776 52.3956 107.818 52.9817 105.12 53.6264C102.481 54.2711 99.9299 55.0623 97.4669 56Z" fill="#F2C479"/>
<path d="M231 15.1209C231 15.6484 230.824 16.1172 230.472 16.5275C230.179 16.8791 229.681 17.3187 228.977 17.8462C228.156 18.5495 227.452 19.2234 226.866 19.8681C226.279 20.4542 225.722 21.2161 225.194 22.1538C223.024 26.2564 220.825 29.9194 218.597 33.1429C221.822 35.7802 224.315 38.4176 226.074 41.0549C227.833 43.6337 228.713 45.9487 228.713 48C228.713 49.9927 228.097 51.6337 226.866 52.9231C225.634 54.1538 224.285 54.7692 222.819 54.7692C221.294 54.7692 219.887 54.1245 218.597 52.8352C217.307 51.4872 216.046 49.4945 214.814 46.8571C214.052 44.9817 213.172 43.2234 212.175 41.5824C206.721 47.7949 200.505 53.0403 193.526 57.3187C186.548 61.5971 178.337 65.4652 168.896 68.9231C168.602 69.0403 168.28 69.0989 167.928 69.0989C167.518 69.0989 167.312 68.9524 167.312 68.6593C167.312 68.2491 167.693 67.8388 168.456 67.4286C176.666 63.1502 183.909 58.0806 190.184 52.2198C196.517 46.3004 201.971 40.0879 206.545 33.5824C202.733 29.2454 197.925 25.5531 192.119 22.5055C190.301 21.5678 189.392 20.8645 189.392 20.3956C189.392 20.1612 189.626 20.044 190.096 20.044C190.565 20.044 191.268 20.1612 192.207 20.3956C198.892 22.1538 204.933 24.5568 210.328 27.6044C212.615 23.7949 214.404 20.3663 215.694 17.3187C217.043 14.2125 217.717 12.2491 217.717 11.4286C217.717 10.0806 216.691 8.90842 214.638 7.91209C214.404 7.79487 214.052 7.64836 213.583 7.47253C213.172 7.2381 212.879 7.06227 212.703 6.94505C212.586 6.76923 212.527 6.62271 212.527 6.5055C212.527 6.21246 213.113 5.97802 214.286 5.8022C215.459 5.62637 216.72 5.53846 218.069 5.53846C219.476 5.53846 220.473 5.62637 221.06 5.8022C222.409 6.21245 223.875 6.97436 225.458 8.08791C227.042 9.20146 228.361 10.4322 229.417 11.7802C230.472 13.0696 231 14.1832 231 15.1209Z" fill="#F2C479"/>
</svg>
